<svg version="1.1" id="Layer_1" xmlns="http://www.w3.org/2000/svg" x="0" y="0" viewBox="0 0 163.5 50" xml:space="preserve"><style>.st0{fill:#fff}.st1{fill:#b2882e}</style><path class="st0" d="M31.1 15.8c-.3-.1-.5-.1-.7-.2 1.3 1.1 1.8 2.9 2.8 3.5-.1.1-.9.6-1.3.6 0 .4.1.8.2 1.2 1-.7 2.5-.9 3.9-.2.2-.4.2-1.4.2-2.2l.2.2c.1 0 .2.1.3.1-.1-.4-.2-.7-.2-1.1.1.1.3.2.5.2-.5-1.8-.2-4-.2-5.3-.2.1-.5.1-.7.1.3-.2.5-.4.7-.6.4-.6 1.3-1.5 1.7-2.3-.3-.1-.5-.2-.7-.4.3.1.5.1.8.1.4-.1.7-.3 1.1-.5.6-.1.5.7.3 1 .9-.8.3-1.6.3-1.7.3-.6.2-1.3-.5-1.8-.2.5-.8 1-1.2 1 .4-.3.7-.7.9-1.2 0-.2.1-.4 0-.6.3-.3.8.1 1 .4.1-1.4-1.1-1.3-1.3-1.4-.6-.8-1.6-1.2-2.4-.5.1 0 .2.1.2.1.6-.3 1.6.1 1.8.7-.2-.1-.4-.1-.5 0s-.5 0-.6.1c.2.5.2 1.2-.7 1.7.7-.8.4-1 .2-1.6 0-.2.6-.7 1.2-.5-.8-.6-1.2-.3-1.4-.2 0-.1-.3-.2-.6-.3-.9-.1-1.4.3-1.6.8-.1.3 0 .7-.1 1 .2 0 .5.1.7.3-.2.1-.3.3-.4.5.6.5.5 1.8-.1 2.3.6-1.3 0-2.1-.3-2.1-.2-.4.4-.7.4-.7h-.5c-.1 0-.2.1-.4.1l-.3.3c-.4-.1-.6 0-1 .4s-.3 1.6-.4 2.1c-.2.6-.6.7-.9 1.3-.3.6-.2 1.8-.2 3 .1.4-.4.7-.2 2.3"/><path class="st0" d="M31.1 15.8c-.3-.1-.5-.1-.7-.2 1.3 1.1 1.8 2.9 2.8 3.5-.1.1-.9.6-1.3.6 0 .4.1.8.2 1.2 1-.7 2.5-.9 3.9-.2.2-.4.2-1.4.2-2.2l.2.2c.1 0 .2.1.3.1-.1-.4-.2-.7-.2-1.1.1.1.3.2.5.2-.5-1.8-.2-4-.2-5.3-.2.1-.5.1-.7.1.3-.2.5-.4.7-.6.4-.6 1.3-1.5 1.7-2.3-.3-.1-.5-.2-.7-.4.3.1.5.1.8.1.4-.1.7-.3 1.1-.5.6-.1.5.7.3 1 .9-.8.3-1.6.3-1.7.3-.6.2-1.3-.5-1.8-.2.5-.8 1-1.2 1 .4-.3.7-.7.9-1.2 0-.2.1-.4 0-.6.3-.3.8.1 1 .4.1-1.4-1.1-1.3-1.3-1.4-.6-.8-1.6-1.2-2.4-.5.1 0 .2.1.2.1.6-.3 1.6.1 1.8.7-.2-.1-.4-.1-.5 0s-.5 0-.6.1c.2.5.2 1.2-.7 1.7.7-.8.4-1 .2-1.6 0-.2.6-.7 1.2-.5-.8-.6-1.2-.3-1.4-.2 0-.1-.3-.2-.6-.3-.9-.1-1.4.3-1.6.8-.1.3 0 .7-.1 1 .2 0 .5.1.7.3-.2.1-.3.3-.4.5.6.5.5 1.8-.1 2.3.6-1.3 0-2.1-.3-2.1-.2-.4.4-.7.4-.7h-.5c-.1 0-.2.1-.4.1l-.3.3c-.4-.1-.6 0-1 .4s-.3 1.6-.4 2.1c-.2.6-.6.7-.9 1.3-.3.6-.2 1.8-.2 3 .1.4-.4.7-.2 2.3m-19.8-2.5c0 1.6.4 3.1.4 3.5.3-.6.6-1.2 1.1-1.7.1-1 .3-2.6.3-3.4-.3.1-1.1.8-1.8 1.6"/><path class="st0" d="M11.3 13.3c0 1.6.4 3.1.4 3.5.3-.6.6-1.2 1.1-1.7.1-1 .3-2.6.3-3.4-.3.1-1.1.8-1.8 1.6m13.1-1.8c-.5-.7-1.2-1-1.7-.5-.4 0-.7-.2-1.1-.4.4 1.1 1.2 2.6 2.4 2.6-1-.7-.4-1.5.4-1.7"/><path class="st0" d="M24.4 11.5c-.5-.7-1.2-1-1.7-.5-.4 0-.7-.2-1.1-.4.4 1.1 1.2 2.6 2.4 2.6-1-.7-.4-1.5.4-1.7"/><path class="st0" d="M24.4 15.6c1.8-.4 2.6-1.4 3.3-1.7.2-.1.5-.2.7-.3-1.5-.6-3-.2-3.7-.1-1.1.3-2 .3-2.8-.9.1.4-.4 1.3-.8 2.1.4.7 1.6 1.2 3.3.9"/><path class="st0" d="M24.4 15.6c1.8-.4 2.6-1.4 3.3-1.7.2-.1.5-.2.7-.3-1.5-.6-3-.2-3.7-.1-1.1.3-2 .3-2.8-.9.1.4-.4 1.3-.8 2.1.4.7 1.6 1.2 3.3.9m7.5 7.4c.2 0 .3.1.5.1-.9-.4-1.2-2.3-1.4-3.4-1-.4-2.9-1.8-2.9-1.6.6 1.5 1 2.3.9 3.4.9.6 2 1.2 2.9 1.5z"/><path class="st0" d="M31.9 23c.2 0 .3.1.5.1-.9-.4-1.2-2.3-1.4-3.4-1-.4-2.9-1.8-2.9-1.6.6 1.5 1 2.3.9 3.4.9.6 2 1.2 2.9 1.5zM19 3c.9.2 2.7-.9 3.8.5-1.3-.9-2.8.1-3.4-.2.6 1.2 1.6 1.3 2.3 1.3 0-.4-1.2-.5-1.3-.8.6.4 1.9.2 1.8.8h.2c-.9.6-3.5-.1-3.4-1.6zm6.2 4.7c-.5 0-.7.1-1.1.4.2-.6.8-.5 1.1-.4zm1-2.7c.2 0 .3.1.5 0 .1 0 .1.1.2.2-.1 0-.2 0-.3-.1h-.3c0 .1 0 .1-.1.2l-.1.1c-.2 0-.4 0-.5-.1 0-.1-.1-.2-.1-.3-.1 0-.1-.1-.2-.1h-.2c0-.2-.2-.3-.3-.4.4.2.9.4 1.4.5zM28 6.2c-.6 0-1.1-.1-1.9.4.4-.7 1.4-.7 1.9-.4zm-2.3 3.7c-1.2-.1-1.3-.2-1.3-.7 0-.7 1.1-1.2 2.4-1-2.5.2-2.3 1.3-1.1 1.7zM13.8 8.7c1.4.1 4.4-1.5 5.7-3.3-1.2 3-4.2 4-6.7 4.1.3-.3.4-.7.8-1.8-.4.4-1.6 1-2.7 1.3-.9 2.2-.6 3.7-1.2 5 1.1-1.3 1.3-1.8 1.7-2.1 1-.9 2.1-1.1 2.4-2.1 0 1-.1 3.2-.4 4.2 1.3-.9 4.1-4 4.3-5.5-.4 3-2.7 5.3-4.9 7.2.1 1.8 1.2 3.3 1.3 4 .3-.5.3-1.2.5-1.5.3-1.4 1.1-2.3.7-3.4.7.8 1.8 2.6 2.2 3.6.4-1.2.6-3.9.4-5.7-.2-.4-.3-.8-.3-1.2 0 0 0-.1-.1-.1 0 0 0 .1.1.1-.1-.4-.1-.9-.1-1.3.2 1.5 1.6 3.1 2.8 4.1.9-1.2 1.1-2.7 1.2-3.8-.8-.5-1.7-1.4-1.8-2.4-.2-1.1.3-1.7 1.2-2.7-1.6 2-.6 3.5.2 4.1.4.3.9.7 1.5.9 1.1-.6 2.4.5 2.8 1.2.1.1.2.3.2.5 1.4 0 2.1-.8 2.3-1.3.1-.2 0-.3.1-.4 0-.1-.2.2-.4-.1 0-.1 0-.2-.1-.2s-.3.2-.5.2c-.4 0-.6-.7-.7-.7-.1 0-.4.3-.5.1 0-.3 0-.5.1-.6.9-1 1.3-.7 1.9-.3.1.1 0 .7.1.8.1.1.4-.2.5-.1.1.1 0 .3.1.3.6-.3 1.1-.8 1.4-1.5h-.4v.2c-.3-1.1-1.1-2.1-2.5-1.7.3-.2 1.1-.5 1.8-.1.5.3.7.9.7 1.4.2 0 .5 0 .7-.1.2-.1.3-.2.3-.3-.1-.3-.6-.7-.8-.9-.1-.6-1.2-1.1-1.9-1.4.7-1.3-1.8-1-2.3-2.3-.4-.9.1-1.5 1.5-1.8-.8-.3-1.5-.5-2.2-.3.3.6.6 1.6-.5 2.1.7-.6.4-1.3 0-1.8-.4-.4-1-.7-1.5-.8-.6-.2-1.2-.2-1.7-.1-.4 0-2 0-3.1-.4v.1l.2.2c.2.2.4.4.7.6.9.6 2.1.7 2.6 1.5 0 0 0 .1.1.1 0 0 0-.1-.1-.1-.4-.4-2.2-.7-3.4-1.2-1.5.6-3.1 1.4-5.1 1.7.4.1.9.3 1.3.3 1.2.2 2.3.7 4.3.5-1.6.9-3.5.4-5 .1-1.5 1.3-2.9 3.5-4 4.4 1.6-.4 5-1.5 6-2.5-.5.9-1.2 2.1-1.8 3"/><path class="st0" d="M19 3c.9.2 2.7-.9 3.8.5-1.3-.9-2.8.1-3.4-.2.6 1.2 1.6 1.3 2.3 1.3 0-.4-1.2-.5-1.3-.8.6.4 1.9.2 1.8.8h.2c-.9.6-3.5-.1-3.4-1.6zm6.2 4.7c-.5 0-.7.1-1.1.4.2-.6.8-.5 1.1-.4zm1-2.7c.2 0 .3.1.5 0 .1 0 .1.1.2.2-.1 0-.2 0-.3-.1h-.3c0 .1 0 .1-.1.2l-.1.1c-.2 0-.4 0-.5-.1 0-.1-.1-.2-.1-.3-.1 0-.1-.1-.2-.1h-.2c0-.2-.2-.3-.3-.4.4.2.9.4 1.4.5zM28 6.2c-.6 0-1.1-.1-1.9.4.4-.7 1.4-.7 1.9-.4zm-2.3 3.7c-1.2-.1-1.3-.2-1.3-.7 0-.7 1.1-1.2 2.4-1-2.5.2-2.3 1.3-1.1 1.7zM13.8 8.7c1.4.1 4.4-1.5 5.7-3.3-1.2 3-4.2 4-6.7 4.1.3-.3.4-.7.8-1.8-.4.4-1.6 1-2.7 1.3-.9 2.2-.6 3.7-1.2 5 1.1-1.3 1.3-1.8 1.7-2.1 1-.9 2.1-1.1 2.4-2.1 0 1-.1 3.2-.4 4.2 1.3-.9 4.1-4 4.3-5.5-.4 3-2.7 5.3-4.9 7.2.1 1.8 1.2 3.3 1.3 4 .3-.5.3-1.2.5-1.5.3-1.4 1.1-2.3.7-3.4.7.8 1.8 2.6 2.2 3.6.4-1.2.6-3.9.4-5.7-.2-.4-.3-.8-.3-1.2 0 0 0-.1-.1-.1 0 0 0 .1.1.1-.1-.4-.1-.9-.1-1.3.2 1.5 1.6 3.1 2.8 4.1.9-1.2 1.1-2.7 1.2-3.8-.8-.5-1.7-1.4-1.8-2.4-.2-1.1.3-1.7 1.2-2.7-1.6 2-.6 3.5.2 4.1.4.3.9.7 1.5.9 1.1-.6 2.4.5 2.8 1.2.1.1.2.3.2.5 1.4 0 2.1-.8 2.3-1.3.1-.2 0-.3.1-.4 0-.1-.2.2-.4-.1 0-.1 0-.2-.1-.2s-.3.2-.5.2c-.4 0-.6-.7-.7-.7-.1 0-.4.3-.5.1 0-.3 0-.5.1-.6.9-1 1.3-.7 1.9-.3.1.1 0 .7.1.8.1.1.4-.2.5-.1.1.1 0 .3.1.3.6-.3 1.1-.8 1.4-1.5h-.4v.2c-.3-1.1-1.1-2.1-2.5-1.7.3-.2 1.1-.5 1.8-.1.5.3.7.9.7 1.4.2 0 .5 0 .7-.1.2-.1.3-.2.3-.3-.1-.3-.6-.7-.8-.9-.1-.6-1.2-1.1-1.9-1.4.7-1.3-1.8-1-2.3-2.3-.4-.9.1-1.5 1.5-1.8-.8-.3-1.5-.5-2.2-.3.3.6.6 1.6-.5 2.1.7-.6.4-1.3 0-1.8-.4-.4-1-.7-1.5-.8-.6-.2-1.2-.2-1.7-.1-.4 0-2 0-3.1-.4v.1l.2.2c.2.2.4.4.7.6.9.6 2.1.7 2.6 1.5 0 0 0 .1.1.1 0 0 0-.1-.1-.1-.4-.4-2.2-.7-3.4-1.2-1.5.6-3.1 1.4-5.1 1.7.4.1.9.3 1.3.3 1.2.2 2.3.7 4.3.5-1.6.9-3.5.4-5 .1-1.5 1.3-2.9 3.5-4 4.4 1.6-.4 5-1.5 6-2.5-.5.9-1.2 2.1-1.8 3"/><path class="st0" d="M23.7 19.3c-.5-.9-2.3-3.4-2.7-4.5-.2.5-.4.8-.4 1-1-.9-1.8-1.5-2.3-2.2.2 1.2.3 2.3.2 3.5 1.1 1.1 3.9 1.6 5.2 2.2"/><path class="st0" d="M23.7 19.3c-.5-.9-2.3-3.4-2.7-4.5-.2.5-.4.8-.4 1-1-.9-1.8-1.5-2.3-2.2.2 1.2.3 2.3.2 3.5 1.1 1.1 3.9 1.6 5.2 2.2"/><path class="st0" d="M28.4 25.3c-1.4.4-2.9.7-3.5-.5 2.2 1 3.9-.6 5.8.1-.6 0-1.3.2-2 .4 1.5 1.1 3.8.7 5.3 1.9-1.8-1-5.3-.9-5.6-1.9zm12.2 7.5c0-.3-.1-.6-.2-.8-.5.1-1.1.1-1.5-.1-.4-.3-.5-.8-1-1.3.5.3.8.8 1.2 1.1.3 0 1.1.2 1.6-.3.2-.3.3-.6.3-1 .2-.3 1.1-1 0-2 .2.5-.1.8-.3.9-.3-.3-.6-.4-.9-.5-.4-.1-.7 0-1 .1-.5-.4-.6-.2-1.2-.5.9-.1 1.3-.5 1.4-.9.4-.2.6 0 .9.1-.5-1.3-1.4-1.1-1.6-1.1-.4-.3-1.2-.4-2.1-.2-1.8-1.2-1.6-1.7-5.2-2.5-.2 0-.3-.1-.5-.1-1.1-.2-1.3-.9-3.6-.7 1.1-.5 1.6-.5 2.8-.3-2.6-2.9-5-4.8-6.4-5.3.6 1.2 1.3 2.8 1.6 3.1-2.4-1.2-5.1-1-6.3-3.1-.1 1-.3 2-.5 3-.2-.4-1.6-2.7-2.2-3.6-.2.3-.3 1.4-.5 2.4.8 1 2.1 2.5 1.3 3.6.2-.1.4-.3.6-.5.2-.2.3-.5.3-.7l.1.1c.5.4 1.1.7 2.2 1 .1.1-.4-.6-.5-1.7.6 1.1 1.4 2.3 1.6 2.5 1.1.8 2.3 1.7 2.7 2.1-.1.7-.1 1-.6 1.5.3.2.5.2.9.3.2 0 1.5-.2 1.7-.3.2.1-.6.5-.4.6.1.1 1-.1 1.1-.2.2.1-.3.4-.1.5.6.2 1.1.5 1.7.8.7.2 1.7 1 3.5 1.4 1.4.4 1.9.4 2.7.7.5.2.8 1 1 1.7.2.8.2 1.4 1.1 1.5.3.1.6.3 1.1.2.2.1.4.2.6.2h.6c-.3-.2-.6-.4-.6-.6h.1c-.2-.1-.4-.2-.5-.4-.2-.5-.3-.8-.6-1.5.6.4.7.9.9 1.4.2.1.4.3.6.4.4.2 1.6.4 2.1-.2.1.1.9.4 1.3-.9-.2.1-.3.2-.5.2-.5 0-.7 0-.8-.1"/><path class="st0" d="M28.4 25.3c-1.4.4-2.9.7-3.5-.5 2.2 1 3.9-.6 5.8.1-.6 0-1.3.2-2 .4 1.5 1.1 3.8.7 5.3 1.9-1.8-1-5.3-.9-5.6-1.9zm12.2 7.5c0-.3-.1-.6-.2-.8-.5.1-1.1.1-1.5-.1-.4-.3-.5-.8-1-1.3.5.3.8.8 1.2 1.1.3 0 1.1.2 1.6-.3.2-.3.3-.6.3-1 .2-.3 1.1-1 0-2 .2.5-.1.8-.3.9-.3-.3-.6-.4-.9-.5-.4-.1-.7 0-1 .1-.5-.4-.6-.2-1.2-.5.9-.1 1.3-.5 1.4-.9.4-.2.6 0 .9.1-.5-1.3-1.4-1.1-1.6-1.1-.4-.3-1.2-.4-2.1-.2-1.8-1.2-1.6-1.7-5.2-2.5-.2 0-.3-.1-.5-.1-1.1-.2-1.3-.9-3.6-.7 1.1-.5 1.6-.5 2.8-.3-2.6-2.9-5-4.8-6.4-5.3.6 1.2 1.3 2.8 1.6 3.1-2.4-1.2-5.1-1-6.3-3.1-.1 1-.3 2-.5 3-.2-.4-1.6-2.7-2.2-3.6-.2.3-.3 1.4-.5 2.4.8 1 2.1 2.5 1.3 3.6.2-.1.4-.3.6-.5.2-.2.3-.5.3-.7l.1.1c.5.4 1.1.7 2.2 1 .1.1-.4-.6-.5-1.7.6 1.1 1.4 2.3 1.6 2.5 1.1.8 2.3 1.7 2.7 2.1-.1.7-.1 1-.6 1.5.3.2.5.2.9.3.2 0 1.5-.2 1.7-.3.2.1-.6.5-.4.6.1.1 1-.1 1.1-.2.2.1-.3.4-.1.5.6.2 1.1.5 1.7.8.7.2 1.7 1 3.5 1.4 1.4.4 1.9.4 2.7.7.5.2.8 1 1 1.7.2.8.2 1.4 1.1 1.5.3.1.6.3 1.1.2.2.1.4.2.6.2h.6c-.3-.2-.6-.4-.6-.6h.1c-.2-.1-.4-.2-.5-.4-.2-.5-.3-.8-.6-1.5.6.4.7.9.9 1.4.2.1.4.3.6.4.4.2 1.6.4 2.1-.2.1.1.9.4 1.3-.9-.2.1-.3.2-.5.2-.5 0-.7 0-.8-.1"/><path class="st0" d="M25.9 18.4c.6.4 1.7 2 2.6 2.7-.4-.7 0-2.9-2.3-4.6 2.8.8 2.9 2.2 5.1 2.5.4 0 .7 0 1.1-.1-1.5-.8-2.1-4.5-4.8-4.6-.5.5-1 1.1-1.6 1.4-2.1 1.1-3.1.7-3.5.6.2.3.4.6.6 1 .9-.2 1.5-.2 2.8 1.1"/><path class="st0" d="M25.9 18.4c.6.4 1.7 2 2.6 2.7-.4-.7 0-2.9-2.3-4.6 2.8.8 2.9 2.2 5.1 2.5.4 0 .7 0 1.1-.1-1.5-.8-2.1-4.5-4.8-4.6-.5.5-1 1.1-1.6 1.4-2.1 1.1-3.1.7-3.5.6.2.3.4.6.6 1 .9-.2 1.5-.2 2.8 1.1m-2.3 20.3c-.2.2-.2.4-.3.6.3.7.9 1.5.8 2.7-.3-1-.7-1.9-1.4-2.7 0-.3.4-.9.5-1 .6 0 1.1-.8 1.4-1.6.3.8-.7 1.7-1 2zm-9.8-5.8c1.9-1 1.6-3.1 3.1-4.2-1 1.2-1.2 4.6-3.1 4.2zm-3.7 7.2c-.2 0-.4.1-.6.2-.4.7-1 1.4-1.4 2.5.2-1.4 1-1.9 1.2-2.9.3-.2 1-.3 1.1-.3.4.4 1.3-.3 1.9-1.3-.1 1-1.5 2.3-2.2 1.8zm18.8 3.4c-.2 0-.1.3-.7.2-.6 0-2.1-1-2.7-2.4.2-.8.5-1.5 1-2.2.5-.7 4.4-1.7 4.2-6.1-.1-1.5-1.5-2.4-3-2.7-.7-.2-1-1.1-.5-1.4-.6-.3-1.1-.5-1.8-.7-.1 0 .1-.2 0-.2-.4 0-.8 0-1.2-.1-.2 0 .3-.3.1-.3-1 .1-2 0-2.5-.2 2-2.6-2.9-4.1-4.2-4.7.2.8-.1 1.6-.2 2.7-.2 1-2.3 2.8-3.6 3-2 .2-4.4-1.9-4.8-3.9-.7-2.8.5-4.6.4-6.3-.1-1.7-1.6-4.2-4.2-4.4.2.1.4.3.5.5-3-.2-2.8.7-4.2 1.2-.6.2-1-.2-.9-.7-.7.8-.2 1.3 0 1.5.3-.2.6-.1.8-.1-.2 0-.5.1-.7.2-1.2.8-1.2 2.9-.7 3.4v-.1c0-.5.2-1 .5-1.4-.2.5-.2 1.1-.1 1.7.7 1.3 2.9 1.3 3.6.7-.6.1-.8 0-1-.2-.6.1-1-.4-1.2-.7.4.3.9.5 1.4.5.1 0 .2 0 .3-.1s.5-.1.6-.2c-.5-.1-1.1-1-.9-1.3.3-.4.6-.3.8-.9.5-1.3-.7-1.2-.4-1.8.6-.9 2.5-.8 3.6-.1 1.1.8 1.1 2.1.9 3.5-.2 1.4-.5 3-.4 3.8 0 .1-.3-.3-.5-.5 0 .4 0 .7.1 1.1-.2 0-.4-.3-.4-.3.8 4.9 4.7 6.3 5.8 6.7.3-.4.8-.7 1.2-1-.2.2-.6.7-1 1.2-.2.4-.9 1.2-1 1.7-.2.8 1.3 2.4.3 4.6-1.2 3-2.8 2.5-3.2 3.2-.2.3-.3.8-.9 1.5-1.1 2.4-1 4.6-1.3 5.3-.1.2-.5.4-.5.6-.1.8.3 1.6.9 1.6.2.2 0 .3-.2.7.7-.1.7-.7.9-.7.2 0 .4-.1.6-.3.2-.3.3-.7.4-1.3.1.3.2.6.1.9h.1c.7.4.7 1.6 1.6 1.1.2 0 .5.3.4.7.2-.1.3-.3.3-.5.1-.2.1-.4 0-.6.2-.2.3-.5.4-.8V48c-.1-.9-.5-1.1-1.2-1.2.6-.2 1.3-.1 1.5 1.1.4.1.7.3 1 .5.1-.6-.2-.7-.3-.9.8-1.8-1.6-1.5-2.3-1.7-.3-.1-.5-.6-.6-1.1.1-1.2.9-2.3 1.9-3.2 3.8.5 6-5.5 7.5-7 .5-.8.9-1.7 1.3-2.5 0 .4-.2 1.4-.6 2.2 5.2-1.2 4 3.2 2.4 3.7-.5.2-.6.9-.3 1.7.1.4.3.7.6 1 .6 1.2 1.2 2.7 1.8 4.2.2.5 1.7.6 2.5 1.6.3.4 2.1.8 2.7.2.2-.2.8 0 .8.7.5-.5.2-1 0-1.3-.1-.5-.3-1-.7-1.3-.5-.2-1.4.1-1.8 0 .7-.1 1.5-.4 1.9-.3.4.3.8.9.9 1.4l.1-.1c.1-.1.5 0 .7.4.2-.6-.5-1.2-.6-1.3 0-.5-.3-1.3-2.1-1.3"/><path class="st0" d="M23.6 38.7c-.2.2-.2.4-.3.6.3.7.9 1.5.8 2.7-.3-1-.7-1.9-1.4-2.7 0-.3.4-.9.5-1 .6 0 1.1-.8 1.4-1.6.3.8-.7 1.7-1 2zm-9.8-5.8c1.9-1 1.6-3.1 3.1-4.2-1 1.2-1.2 4.6-3.1 4.2zm-3.7 7.2c-.2 0-.4.1-.6.2-.4.7-1 1.4-1.4 2.5.2-1.4 1-1.9 1.2-2.9.3-.2 1-.3 1.1-.3.4.4 1.3-.3 1.9-1.3-.1 1-1.5 2.3-2.2 1.8zm18.8 3.4c-.2 0-.1.3-.7.2-.6 0-2.1-1-2.7-2.4.2-.8.5-1.5 1-2.2.5-.7 4.4-1.7 4.2-6.1-.1-1.5-1.5-2.4-3-2.7-.7-.2-1-1.1-.5-1.4-.6-.3-1.1-.5-1.8-.7-.1 0 .1-.2 0-.2-.4 0-.8 0-1.2-.1-.2 0 .3-.3.1-.3-1 .1-2 0-2.5-.2 2-2.6-2.9-4.1-4.2-4.7.2.8-.1 1.6-.2 2.7-.2 1-2.3 2.8-3.6 3-2 .2-4.4-1.9-4.8-3.9-.7-2.8.5-4.6.4-6.3-.1-1.7-1.6-4.2-4.2-4.4.2.1.4.3.5.5-3-.2-2.8.7-4.2 1.2-.6.2-1-.2-.9-.7-.7.8-.2 1.3 0 1.5.3-.2.6-.1.8-.1-.2 0-.5.1-.7.2-1.2.8-1.2 2.9-.7 3.4v-.1c0-.5.2-1 .5-1.4-.2.5-.2 1.1-.1 1.7.7 1.3 2.9 1.3 3.6.7-.6.1-.8 0-1-.2-.6.1-1-.4-1.2-.7.4.3.9.5 1.4.5.1 0 .2 0 .3-.1s.5-.1.6-.2c-.5-.1-1.1-1-.9-1.3.3-.4.6-.3.8-.9.5-1.3-.7-1.2-.4-1.8.6-.9 2.5-.8 3.6-.1 1.1.8 1.1 2.1.9 3.5-.2 1.4-.5 3-.4 3.8 0 .1-.3-.3-.5-.5 0 .4 0 .7.1 1.1-.2 0-.4-.3-.4-.3.8 4.9 4.7 6.3 5.8 6.7.3-.4.8-.7 1.2-1-.2.2-.6.7-1 1.2-.2.4-.9 1.2-1 1.7-.2.8 1.3 2.4.3 4.6-1.2 3-2.8 2.5-3.2 3.2-.2.3-.3.8-.9 1.5-1.1 2.4-1 4.6-1.3 5.3-.1.2-.5.4-.5.6-.1.8.3 1.6.9 1.6.2.2 0 .3-.2.7.7-.1.7-.7.9-.7.2 0 .4-.1.6-.3.2-.3.3-.7.4-1.3.1.3.2.6.1.9h.1c.7.4.7 1.6 1.6 1.1.2 0 .5.3.4.7.2-.1.3-.3.3-.5.1-.2.1-.4 0-.6.2-.2.3-.5.4-.8V48c-.1-.9-.5-1.1-1.2-1.2.6-.2 1.3-.1 1.5 1.1.4.1.7.3 1 .5.1-.6-.2-.7-.3-.9.8-1.8-1.6-1.5-2.3-1.7-.3-.1-.5-.6-.6-1.1.1-1.2.9-2.3 1.9-3.2 3.8.5 6-5.5 7.5-7 .5-.8.9-1.7 1.3-2.5 0 .4-.2 1.4-.6 2.2 5.2-1.2 4 3.2 2.4 3.7-.5.2-.6.9-.3 1.7.1.4.3.7.6 1 .6 1.2 1.2 2.7 1.8 4.2.2.5 1.7.6 2.5 1.6.3.4 2.1.8 2.7.2.2-.2.8 0 .8.7.5-.5.2-1 0-1.3-.1-.5-.3-1-.7-1.3-.5-.2-1.4.1-1.8 0 .7-.1 1.5-.4 1.9-.3.4.3.8.9.9 1.4l.1-.1c.1-.1.5 0 .7.4.2-.6-.5-1.2-.6-1.3 0-.5-.3-1.3-2.1-1.3"/><path class="st1" d="M52.4 10.3c.1 0 .1-.1.1-.2l-2.2-6.3c-.1-.3-.2-.3-.3 0l-2 6.3c0 .1 0 .2.1.2h4.3zM50 1c.3-.8.4-.9.5-.9.1 0 .2.1.5.8.4.9 4 10.5 5.4 14 .8 2.1 1.5 2.4 2 2.6.3.1.6.1.9.1.1 0 .2 0 .2.1s-.1.3-.4.3h-3.6c-.4 0-.7 0-.7-.2 0-.1.1-.1.2-.2.1 0 .3-.3.1-.6l-2.2-5.7s0-.1-.1-.1h-5.1c-.1 0-.1 0-.2.1l-.1.1-1.4 4.1c-.2.5-.3 1-.3 1.6 0 .5.5.7.9.7h.2c.2 0 .2 0 .2.1s-.1.2-.3.2c-.6 0-1.6-.1-1.8-.1h-2.6c-.3 0-.4 0-.4-.2 0-.1.1-.1.2-.1h.7c1.1-.1 1.5-1 2-2.2L50 1zm27.7 14.5c.1.7.2 1.8 1 2 .4.1.9.2 1.3.2.1 0 .2 0 .2.1s-.2.2-.4.2c-.5 0-2.7 0-3.5-.1-.5 0-.6-.1-.6-.2v-.1l.1-.1c.1 0 .1-.3.1-.7l-1-10L70 16.9c-.4.9-.5 1-.7 1-.2 0-.3-.2-.7-.9-.5-1-1.9-3.5-2.4-4.6-.6-1.3-2.3-4.6-2.6-5.4h-.1l-.7 9v1c0 .1 0 .3.1.4.1.1.2.2.4.2.3.1.5.1.8.1.1 0 .2.1.2.1 0 .1-.1.2-.4.2-.8 0-1.7-.1-1.9-.1-.2 0-1.2.1-1.7.1-.2 0-.3 0-.3-.2 0-.1.1-.1.2-.1.2 0 .4 0 .6-.1.7-.1.7-.8.8-1.6l1.5-12.9c0-.2.1-.3.2-.3s.2 0 .3.1l.2.2L70 15.4l5.9-12.2c.1-.2.2-.3.3-.3.1 0 .3.2.3.5l1.2 12.1zm5.7-6.7V4.5c0-.7-.2-1-.8-1.1h-.7s-.1 0-.1-.1c0 0 0-.1-.1-.1 0-.1.1-.2.3-.2h7.3c.3.1.7 0 .8 0 .1 0 .2-.1.3-.1.1 0 .1.1.1.2s-.1.4-.2.9c0 .2-.1 1.1-.1 1.3 0 .1-.1.2-.2.2s-.2-.1-.2-.3c0-.2 0-.5-.1-.7-.1-.3-.3-.5-1.5-.6-.3 0-2.7-.1-2.9-.1-.1 0-.1.1-.1.2v5.4c0 .1 0 .2.1.2h3.4c.5 0 .8-.1 1-.3.1-.1.2-.3.3-.3.1 0 .1 0 .1.2-.1.4-.1.7-.2 1.1 0 .4-.1 1.1-.1 1.3s0 .4-.2.4c-.1 0-.1-.1-.1-.2 0-.2 0-.4-.1-.7-.1-.3-.3-.5-1-.6-.6-.1-2.7-.1-3.1-.1h-.1v5.1c0 1.3.4 1.6 2.4 1.6.5 0 1.5 0 2-.2s.8-.6.9-1.4c0-.2.1-.3.2-.3s.1.2.1.3c0 .6-.1 1.3-.3 1.9-.1.5-.4.5-1.1.5-1.5 0-2.7 0-3.6-.1H82c-.2 0-.3 0-.3-.2v-.2h.2c.2 0 .4 0 .6-.1.4-.1.4-.5.5-1 .1-.8.1-2.4.1-4.3V8.8zm14.1 1.7v.1l.1.1c.3.2 1.3.3 2.2.3.5 0 1 0 1.5-.3.7-.5 1.2-1.5 1.2-3 0-2.5-1.3-3.9-3.5-3.9-.5 0-1 0-1.5.1l-.1.1v.1l.1 6.4zm-1.8-1.7V4.5c0-.7-.2-1-.8-1.1h-.7s-.1 0-.1-.1c0 0 0-.1-.1-.1 0-.1.1-.2.3-.2h5c1.3 0 2.7.1 3.8.9.5.4 1.4 1.3 1.4 2.7 0 1.5-.6 2.9-2.5 4.5 1.7 2.1 3.1 3.9 4.3 5.1 1.1 1.1 1.8 1.3 2.3 1.4.2 0 .5.1.7.1h.1l.1.1c0 .1-.1.2-.5.2h-1.3c-1.2 0-1.7-.1-2.2-.4-.9-.5-1.6-1.4-2.8-2.9-.9-1.1-1.8-2.3-2.2-2.9l-.1-.1h-2.8c-.1 0-.1 0-.1.2v.5c0 1.9 0 3.4.1 4.3.1.6.2 1 .8 1 .3.1.6.1.9.1h.2v.2c0 .1-.1.2-.3.2-1.1 0-2.4-.1-2.5-.1 0 0-1.4.1-2 .1-.2 0-.3 0-.3-.2v-.2h.2c.2 0 .4 0 .6-.1.4-.1.4-.5.5-1 .1-.8.1-2.4.1-4.3l-.1-3.6z"/><path class="st1" d="M112.7 12.3c0 1.9 0 3.5.1 4.3.1.6.1 1 .7 1 .3 0 .6.1.9.1h.2v.2c0 .1-.1.2-.3.2-1.1 0-2.5-.1-2.6-.1-.1 0-1.4.1-2 .1-.2 0-.3 0-.3-.2v-.2h.2c.2 0 .4 0 .6-.1.4-.1.5-.5.5-1 .1-.8.1-2.4.1-4.3V4.5c0-.7-.2-1-.7-1.1-.2 0-.4-.1-.6-.1 0 0-.1 0-.1-.1s0-.1-.1-.1c0-.1.1-.2.3-.2h4.1c.2 0 .3 0 .3.2 0 0 0 .1-.1.1 0 0-.1 0-.1.1h-.5c-.6.1-.7.4-.7 1.1v7.9zm6.6 3.9c-2-1.7-2.5-4-2.5-5.9 0-2 .9-4 2.3-5.4 1.2-1.2 3.1-2.1 6.2-2.1 1 0 2 .1 3 .2.7.2 1.4.3 2.1.3.2 0 .3.1.3.2 0 .2 0 .4-.1 1.1v2c0 .3-.1.4-.2.4s-.2-.1-.2-.4c0-.8-.3-1.6-.9-2-.7-.6-2.2-1.1-4-1.1-2.6 0-3.9.7-4.6 1.4-1.5 1.4-1.8 3.2-1.8 5.2 0 3.8 3 7.2 7.4 7.2 1.5 0 2.6-.1 3.4-.9.4-.4.7-1.3.8-1.6 0-.2.1-.3.2-.3s.2.1.2.3c-.1.9-.3 1.7-.5 2.5-.1.4-.2.4-.5.6-.8.3-2.4.4-3.7.4-3.3 0-5.3-.8-6.9-2.1m21.2-4.5c.1 0 .1 0 .1-.1l-2-5.4c-.1-.3-.2-.3-.3 0l-1.9 5.4c0 .1 0 .1.1.1h4zm-2.3-8.2c.3-.6.3-.8.5-.8s.3.3.5.7c.4.8 3.6 9 4.9 12 .7 1.8 1.3 2 1.7 2.2.3.1.5.1.8.1.1 0 .3 0 .3.2 0 .1-.2.2-.5.2h-3.2c-.4 0-.7 0-.7-.1s0-.1.1-.1.1 0 .1-.1l.1-.1v-.4l-1.8-4.5c0-.1-.1-.1-.2-.1H136l-.1.1-1.2 3.2c-.2.4-.3.9-.3 1.3s.3.5.7.5h.2c.2 0 .2.1.2.2s-.1.2-.3.2c-.5 0-1.6-.1-1.8-.1s-1.2.1-2.1.1c-.3 0-.4 0-.4-.2 0 0 0-.1.1-.1h.7c.9-.1 1.3-.8 1.7-1.8l4.8-12.6zM150 15.3c0 1.6.2 2.1.8 2.3.3.1.7.1 1 .1h.2v.2c0 .1-.1.2-.4.2-1.2 0-2-.1-2.2-.1s-1 .1-2 .1c-.2 0-.3 0-.3-.2v-.2h.2c.3 0 .6 0 .8-.1.5-.1.6-.7.6-2.5V3.8c0-.8.1-1 .3-1 .2 0 .6.4.8.6.3.3 3.3 3.5 6.5 6.7 2 2.1 4.2 4.4 4.8 5.1l-.2-9.9c0-1.3-.1-1.7-.8-1.8-.3-.1-.7-.1-1-.1-.1 0-.2-.1-.2-.2s.2-.1.4-.1h3.8c.2 0 .4 0 .4.1s0 .1-.1.1c0 0-.1.1-.2.1h-.5c-.7.1-.7.5-.7 1.7v11.6c0 1.3 0 1.4-.2 1.4s-.4-.2-1.6-1.2c-.2-.2-3.2-3.1-5.3-5.3-2.4-2.5-4.6-4.9-5.3-5.6l.4 9.3zM61 35.7c-.2-.1-.2-.1-.2-.5 0-.7.1-1.2.1-1.4 0-.1 0-.2.1-.2s.1 0 .1.2v.5c.2 1 1.2 1.3 2.2 1.3 1.3 0 2-.8 2-1.8 0-.9-.5-1.4-1.7-2.3L63 31c-1.5-1.1-1.9-1.9-1.9-2.8 0-1.5 1.2-2.5 3-2.5.5 0 .9.1 1.4.2.2 0 .3.1.5.1.1 0 .1 0 .1.1s-.1.5-.1 1.4c0 .2 0 .3-.1.3s-.1-.1-.1-.2c0-.2-.1-.4-.2-.7-.1-.2-.5-.7-1.8-.7-1 0-1.8.5-1.8 1.4 0 .8.4 1.3 1.8 2.2l.4.3c1.7 1.1 2.2 2 2.2 3.2 0 .8-.3 1.6-1.3 2.2-.6.4-1.4.5-2.2.5-.5.1-1.3 0-1.9-.3m12-3.6c0 1.3 0 2.3.1 2.8 0 .4.1.6.5.7.2 0 .4.1.6.1 0 .1-.1.1-.2.1h-3.1c-.2 0-.2 0-.2-.1 0 0 0-.1.1-.1s.3 0 .4-.1c.3-.1.4-.3.4-.7.1-.5.1-1.6.1-2.8v-5.5h-2c-.9 0-1.2.1-1.4.4-.1.1-.2.3-.2.4 0 .1-.1.1-.1.1h-.1v-.1c0-.1.3-1.3.3-1.4 0-.1.1-.3.1-.3.2.1.4.1.6.2.4 0 .9.1 1.1.1h5.1c.3 0 .7 0 1-.1.2 0 .3-.1.4-.1.1 0 .1.1.1.2v1.5c0 .1-.1.2-.1.2-.1 0-.1 0-.1-.2v-.1c0-.4-.3-.7-1.6-.7h-1.7l-.1 5.5zm9.1-.4L80.8 28c-.1-.2-.2-.2-.2 0l-1.3 3.6v.1h2.8zm-1.5-5.5c.2-.4.2-.5.3-.5.1 0 .2.2.3.5.2.6 2.4 6 3.3 8 .5 1.2.9 1.3 1.2 1.4.2.1.4.1.5.1.1 0 .2 0 .2.1s-.2.1-.3.1h-2.2c-.3 0-.5 0-.5-.1s0-.1.1-.1c0 0 .1 0 .1-.1 0 0 0-.1.1-.1v-.2l-1.2-3c0-.1 0-.1-.1-.1h-3.2l-.1.1-.8 2.1c-.2.3-.3.6-.3.9 0 .3.2.4.5.4h.1c.1 0 .1 0 .1.1s-.1.1-.2.1h-2.6c-.2 0-.3 0-.3-.1v-.1h.5c.6-.1.9-.5 1.2-1.2l3.3-8.3zm9.2 5.9c0 1.3 0 2.3.1 2.8 0 .4.1.6.5.7.2 0 .4.1.6.1 0 .1-.1.1-.2.1h-3.1c-.2 0-.2 0-.2-.1 0 0 0-.1.1-.1s.3 0 .4-.1c.3-.1.4-.3.4-.7.1-.5.1-1.6.1-2.8v-5.5h-2c-.9 0-1.2.1-1.4.4-.1.1-.2.3-.2.4 0 .1-.1.1-.1.1h-.1v-.1c0-.1.3-1.3.3-1.4 0-.1.1-.3.1-.3.2.1.4.1.6.2.4 0 .9.1 1.1.1H92c.3 0 .7 0 1-.1.2 0 .3-.1.4-.1s.1.1.1.2v1.5c0 .1-.1.2-.1.2s-.1 0-.1-.2v-.1c0-.4-.3-.7-1.6-.7H90l-.2 5.5zm6.2-2.3V27c0-.4-.1-.7-.6-.7h-.6v-.1c0-.1.1-.1.2-.1h4.8c.3 0 .5-.1.6-.1.1 0 .1-.1.2-.1l.1.1c0 .1-.1.2-.1.6 0 .1 0 .7-.1.9 0 .1-.1.1-.1.1-.1 0-.1-.1-.1-.2 0-.2 0-.3-.1-.5s-.2-.3-1-.4h-2c-.1 0-.1 0-.1.1v3.6c0 .1 0 .1.1.1h2.3c.3 0 .5 0 .7-.2l.2-.2s.1 0 .1.1-.1.3-.1.7c0 .3-.1.8-.1.9 0 .1 0 .2-.1.2s-.1 0-.1-.1 0-.3-.1-.4c0-.2-.2-.3-.7-.4-.4 0-1.8-.1-2.1-.1-.1 0-.1 0-.1.1v3.3c0 .9.3 1.1 1.6 1.1.4 0 1 0 1.4-.1.4-.1.5-.4.6-.9 0-.2.1-.2.1-.2.1 0 .1.1.1.2 0 .4-.1.9-.2 1.3-.1.3-.2.3-.8.3H95c-.1 0-.2 0-.2-.1.1 0 .3 0 .4-.1.3 0 .3-.3.4-.7.1-.5.1-1.6.1-2.9v-2.3zm14.1 1.7v2.8c0 .6 0 .8.5 1 .4.1.8.2 1.2.2.9 0 2-.3 2-2 0-.5-.1-.9-.3-1.4-.2-.4-.6-.8-1-1-.5-.3-.9-.3-1.2-.3h-1.1s-.1 0-.1.1v.6zm0-1.5c0 .1 0 .1.1.1.3 0 .6.1.8.1.8 0 1.1 0 1.3-.3.4-.4.5-.9.5-1.4 0-1-.6-2.1-1.9-2.1-.2 0-.5 0-.7.1-.1 0-.2.1-.2.1l.1 3.4zm-1.2-.2V27c0-.4-.1-.7-.6-.8h-.5s-.1 0-.1-.1c0 0 .1-.1.2-.1h3.2c2.3 0 2.9 1.3 2.9 2 0 1-.7 1.7-1.4 2.3 1 .3 2.4 1.3 2.4 2.7s-1.1 2.9-3.4 2.9h-3.5c-.1 0-.2 0-.2-.1 0 0 0-.1.1-.1s.3 0 .4-.1c.3 0 .3-.3.4-.7.1-.9.1-1.9.1-2.9v-2.2zm12.7 1.9c.1 0 .1 0 0 0l-1.3-3.7c-.1-.2-.2-.2-.2 0l-1.3 3.6v.1h2.8zm-1.5-5.5c.2-.4.2-.5.3-.5.1 0 .2.2.3.5.2.6 2.4 6 3.3 8 .5 1.2.9 1.3 1.2 1.4.2.1.4.1.5.1.1 0 .2 0 .2.1s-.2.1-.3.1h-2.2c-.3 0-.5 0-.5-.1s0-.1.1-.1c0 0 .1 0 .1-.1 0 0 0-.1.1-.1v-.2l-1.2-3c0-.1 0-.1-.1-.1h-3.2l-.1.1-.8 2.1c-.1.3-.2.6-.2.9 0 .3.2.4.5.4h.1c.1 0 .1 0 .1.1s-.1.1-.2.1h-2.6c-.2 0-.3 0-.3-.1v-.1h.5c.6-.1.9-.5 1.2-1.2l3.2-8.3zm7.8 7.9c0 1.1.2 1.4.5 1.5.2 0 .5.1.7.1 0 .1-.1.1-.2.1h-2.7c-.1 0-.2 0-.2-.1.2 0 .4 0 .6-.1.3-.1.4-.4.4-1.6v-7.5c0-.5.1-.7.2-.7.2 0 .4.3.5.4.2.2 2.2 2.3 4.3 4.5 1.3 1.4 2.8 3 3.2 3.4l-.1-6.6c0-.9-.1-1.1-.5-1.2-.2 0-.4-.1-.7-.1-.1 0-.1-.1-.1-.1s.1-.1.3-.1h2.6c.1 0 .2 0 .2.1 0 0 0 .1-.1.1h-.4c-.5.1-.5.4-.5 1.2v7.7c0 .9 0 .9-.1.9s-.3-.1-1-.8c-.1-.1-2.1-2.1-3.5-3.6-1.6-1.7-3.1-3.3-3.5-3.7l.1 6.2zm11.7-4.3V27c0-.4-.1-.7-.6-.7h-.6v-.1c0-.1.1-.1.2-.1h2.8c.2 0 .2 0 .2.1v.1h-.4c-.4.1-.5.3-.5.7v3.6h.1l3.2-3.2c.4-.4.7-.7.7-.9 0-.2-.1-.3-.2-.3h-.1v-.1c0-.1.1-.1.2-.1h2.3c.1 0 .2 0 .2.1s0 .1-.1.1c-.3 0-.5.1-.8.2-.6.2-.8.5-1.4 1.1-.3.3-2.7 2.5-3 2.9l3.7 3.7c1.1 1 1.3 1.2 2 1.5.3.1.5.2.8.2.1 0 .2 0 .2.1s-.1.1-.3.1h-1.6c-.7-.1-1.1-.4-1.7-.8-.6-.5-3.5-3.5-4.1-4.3h-.1v1.3c0 1.3 0 2.3.1 2.9 0 .4.1.6.5.7.2 0 .3.1.5.1 0 .1-.1.1-.2.1h-2.9c-.1 0-.2 0-.2-.1.1 0 .3 0 .4-.1.3-.1.3-.3.4-.7.1-.5.1-1.6.1-2.9v-2.4z"/></svg>