<svg width="250" height="72" fill="none" xmlns="http://www.w3.org/2000/svg"><g clip-path="url(#clip0_1971_5961)" fill="#fff"><path d="M53.282 22.7a11.572 11.572 0 01-1.068-.334c1.8 1.543 2.63 4.222 4.072 5.043-.136.08-1.281.93-1.86.874.046.6.128 1.197.247 1.786 1.383-1.045 3.612-1.325 5.587-.302.276-.508.315-2.066.246-3.115a.794.794 0 00.664.341 3.935 3.935 0 01-.235-1.634c.214.166.468.275.735.316-.705-2.61-.356-5.794-.35-7.664a2.262 2.262 0 01-1.024.17c.39-.252.749-.548 1.07-.883.59-.81 1.903-2.125 2.445-3.348a2.21 2.21 0 01-1.007-.513c.377.096.765.141 1.154.136a4.588 4.588 0 001.515-.719c.794-.191.7.946.5 1.424 1.312-1.11.499-2.272.41-2.497.457-.935.277-1.922-.727-2.638-.227.666-1.159 1.387-1.726 1.387a5.312 5.312 0 001.333-1.664h-.02c.071-.3.093-.607.064-.913.363-.4 1.198.147 1.405.58.097-2.003-1.59-1.942-1.897-2.053-.8-1.09-2.31-1.714-3.405-.73a.83.83 0 01.343.195c.81-.42 2.32.074 2.517 1.045a1.38 1.38 0 00-1.48.317c.258.746.26 1.714-.995 2.496 1.004-1.093.553-1.442.329-2.347-.06-.241.808-.965 1.682-.78-1.087-.867-1.782-.426-2.053-.33-.066-.135-.459-.293-.887-.393-1.226-.133-1.964.36-2.362 1.11-.208.385.058.956-.144 1.48.355.001.699.13.968.364a1.258 1.258 0 00-.576.716c.797.682.742 2.596-.146 3.29.863-1.859-.06-3.032-.401-2.99-.23-.555.639-1.024.611-1.027a1.895 1.895 0 00-.702.028 1.187 1.187 0 00-.885.555c-.52-.09-.88-.02-1.425.59s-.37 2.32-.636 3.021c-.315.832-.83 1.027-1.314 1.864-.484.838-.323 2.663-.22 4.32.038.676-.596 1.087-.347 3.403"/><path d="M53.282 22.7a11.572 11.572 0 01-1.068-.334c1.8 1.543 2.63 4.222 4.072 5.043-.136.08-1.281.93-1.86.874.046.6.128 1.197.247 1.786 1.383-1.045 3.612-1.325 5.587-.302.276-.508.315-2.066.246-3.115a.794.794 0 00.664.341 3.935 3.935 0 01-.235-1.634c.214.166.468.275.735.316-.705-2.61-.356-5.794-.35-7.664a2.262 2.262 0 01-1.024.17c.39-.252.749-.548 1.07-.883.59-.81 1.903-2.125 2.445-3.348a2.21 2.21 0 01-1.007-.513c.377.096.765.141 1.154.136a4.588 4.588 0 001.515-.719c.794-.191.7.946.5 1.424 1.312-1.11.499-2.272.41-2.497.457-.935.277-1.922-.727-2.638-.227.666-1.159 1.387-1.726 1.387a5.312 5.312 0 001.333-1.664h-.02c.071-.3.093-.607.064-.913.363-.4 1.198.147 1.405.58.097-2.003-1.59-1.942-1.897-2.053-.8-1.09-2.31-1.714-3.405-.73a.83.83 0 01.343.195c.81-.42 2.32.074 2.517 1.045a1.38 1.38 0 00-1.48.317c.258.746.26 1.714-.995 2.496 1.004-1.093.553-1.442.329-2.347-.06-.241.808-.965 1.682-.78-1.087-.867-1.782-.426-2.053-.33-.066-.135-.459-.293-.887-.393-1.226-.133-1.964.36-2.362 1.11-.208.385.058.956-.144 1.48.355.001.699.13.968.364a1.258 1.258 0 00-.576.716c.797.682.742 2.596-.146 3.29.863-1.859-.06-3.032-.401-2.99-.23-.555.639-1.024.611-1.027a1.895 1.895 0 00-.702.028 1.187 1.187 0 00-.885.555c-.52-.09-.88-.02-1.425.59s-.37 2.32-.636 3.021c-.315.832-.83 1.027-1.314 1.864-.484.838-.323 2.663-.22 4.32.038.676-.596 1.087-.347 3.403M24.82 19.054c-.053 2.305.63 4.508.63 5.08.394-.891.905-1.725 1.519-2.48.146-1.435.36-3.793.467-4.93-.445.186-1.546 1.212-2.616 2.32"/><path d="M24.82 19.054c-.053 2.305.63 4.508.63 5.08.394-.891.905-1.725 1.519-2.48.146-1.435.36-3.793.467-4.93-.445.186-1.546 1.212-2.616 2.32m18.85-2.567c-.702-1.065-1.7-1.387-2.425-.677a3.497 3.497 0 01-1.524-.527c.584 1.645 1.726 3.781 3.397 3.745-1.48-1.03-.537-2.22.553-2.541z"/><path d="M43.67 16.477c-.702-1.065-1.7-1.387-2.425-.677a3.497 3.497 0 01-1.524-.527c.584 1.645 1.726 3.781 3.397 3.745-1.48-1.03-.537-2.22.553-2.541z"/><path d="M43.66 22.427c2.56-.555 3.736-2.08 4.721-2.497a4.813 4.813 0 011.02-.427c-2.104-.807-4.367-.23-5.351-.15-1.615.503-2.89.447-4.063-1.24.091.591-.633 1.942-1.187 3.024.714.971 2.387 1.737 4.86 1.304"/><path d="M43.66 22.427c2.56-.555 3.736-2.08 4.721-2.497a4.813 4.813 0 011.02-.427c-2.104-.807-4.367-.23-5.351-.15-1.615.503-2.89.447-4.063-1.24.091.591-.633 1.942-1.187 3.024.714.971 2.387 1.737 4.86 1.304m10.75 10.594c.22.057.444.1.67.127-1.267-.596-1.773-3.256-1.972-4.851-1.452-.597-4.168-2.541-4.096-2.31.851 2.116 1.405 3.328 1.288 4.84 1.323.934 2.824 1.797 4.11 2.194z"/><path d="M54.41 33.035c.22.057.444.1.67.127-1.267-.596-1.773-3.256-1.972-4.851-1.452-.597-4.168-2.541-4.096-2.31.851 2.116 1.405 3.328 1.288 4.84 1.323.934 2.824 1.797 4.11 2.194zM35.954 4.336c1.334.258 3.922-1.301 5.515.776-1.9-1.237-3.996.111-4.884-.258.73 1.557 2.157 1.712 3.18 1.665.048-.51-1.725-.78-1.935-1.212.901.504 2.738.307 2.627 1.217.127 0 .23-.03.296-.041-1.294.962-5.034-.04-4.81-2.153l.011.006zm8.82 6.685c-.691.047-.946.191-1.557.59.346-.876 1.107-.72 1.557-.59zm1.433-3.914c.221.071.457.086.686.041.166.05.171.153.257.325a.797.797 0 01-.404-.089 1.103 1.103 0 00-.365-.039.59.59 0 01-.301.386c-.313 0-.573.039-.73-.153a1.668 1.668 0 00-.15-.493.53.53 0 00-.553-.064c-.022-.344-.276-.372-.448-.624a5.933 5.933 0 002.014.71h-.006zm2.683 1.77c-.858.019-1.58-.175-2.796.593.553-1.065 2.085-.976 2.796-.593zm-3.355 5.29c-1.66-.075-1.936-.347-1.936-1.04 0-1.033 1.593-1.793 3.405-1.388-3.441.278-3.256 1.906-1.48 2.427h.011zm-17.114-1.632c2.032.147 6.314-2.13 8.189-4.701-1.679 4.252-6.018 5.739-9.57 5.839.407-.447.642-1.052 1.085-2.575-.515.605-2.26 1.387-3.872 1.942-1.248 3.102-.858 5.354-1.701 7.135 1.518-1.82 1.936-2.524 2.489-2.974 1.383-1.273 3.042-1.6 3.476-3.051.036 1.512-.149 4.552-.591 6.036 1.853-1.323 5.863-5.723 6.14-7.95-.581 4.385-3.939 7.69-7.078 10.41.163 2.655 1.767 4.816 1.864 5.803.404-.701.393-1.703.675-2.166.464-2.033 1.543-3.362.976-4.874.949 1.174 2.647 3.7 3.197 5.149.506-1.692.913-5.615.553-8.209a6.33 6.33 0 01-.428-1.664 3.3 3.3 0 00-.103-.197c.036.061.067.122.1.183a12.7 12.7 0 01-.083-1.911c.296 2.22 2.246 4.524 4.093 5.861 1.278-1.683 1.602-3.936 1.68-5.467-1.179-.724-2.432-2-2.642-3.51-.221-1.636.42-2.523 1.753-3.86-2.317 2.92-.862 5.01.277 5.9.534.413 1.303 1.065 2.213 1.298 1.51-.899 3.476.666 3.955 1.736a1.2 1.2 0 01.298.713c1.997 0 3.073-1.093 3.35-1.941.08-.256 0-.392.09-.613-.066-.175-.237.235-.591-.13-.022-.092-.03-.262-.13-.262s-.426.342-.65.333c-.54 0-.83-.962-1.034-1.018-.205-.055-.573.502-.703.147-.02-.499-.069-.674.091-.868 1.223-1.467 1.936-1.04 2.797-.466.171.114-.067 1.007.09 1.11.158.102.634-.278.778-.186.196.119.036.424.166.444a4.544 4.544 0 002.052-2.12 3.728 3.728 0 01-.636-.058 1.162 1.162 0 01-.05.277c-.392-1.63-1.587-3.05-3.595-2.496.478-.32 1.57-.763 2.57-.111.743.48.97 1.276 1.07 2.047.352.042.71-.008 1.037-.147.22-.141.484-.305.442-.416-.138-.422-.924-.968-1.18-1.226-.18-.893-1.66-1.523-2.753-2.064 1.04-1.83-2.547-1.47-3.319-3.35-.528-1.302.114-2.192 2.088-2.561-1.106-.347-2.071-.669-3.042-.278.368.933.93 2.344-.653 3.016 1.015-.81.62-1.842 0-2.647h-.019A5.681 5.681 0 0038.958.474c-.59.078-2.945.072-4.425-.507.02.036.044.077.069.116.08.103.16.208.235.314.28.328.61.609.98.832 1.338.815 3 1.02 3.747 2.144a.37.37 0 01.077.117c-.022-.042-.055-.08-.077-.117-.529-.535-3.173-1.076-4.926-1.69-2.138.872-4.4 1.962-7.324 2.497.636.204 1.282.37 1.936.5 1.793.233 3.25 1.076 6.204.735-2.37 1.265-5.056.538-7.191.15-2.202 1.925-4.18 5.078-5.745 6.313 2.24-.508 7.213-2.203 8.574-3.65-.788 1.29-1.825 2.97-2.663 4.307"/><path d="M35.954 4.336c1.334.258 3.922-1.301 5.515.776-1.9-1.237-3.996.111-4.884-.258.73 1.557 2.157 1.712 3.18 1.665.048-.51-1.725-.78-1.935-1.212.901.504 2.738.307 2.627 1.217.127 0 .23-.03.296-.041-1.294.962-5.034-.04-4.81-2.153l.011.006zm8.82 6.685c-.691.047-.946.191-1.557.59.346-.876 1.107-.72 1.557-.59zm1.433-3.914c.221.071.457.086.686.041.166.05.171.153.257.325a.797.797 0 01-.404-.089 1.103 1.103 0 00-.365-.039.59.59 0 01-.301.386c-.313 0-.573.039-.73-.153a1.668 1.668 0 00-.15-.493.53.53 0 00-.553-.064c-.022-.344-.276-.372-.448-.624a5.933 5.933 0 002.014.71h-.006zm2.683 1.77c-.858.019-1.58-.175-2.796.593.553-1.065 2.085-.976 2.796-.593zm-3.355 5.29c-1.66-.075-1.936-.347-1.936-1.04 0-1.033 1.593-1.793 3.405-1.388-3.441.278-3.256 1.906-1.48 2.427h.011zm-17.114-1.632c2.032.147 6.314-2.13 8.189-4.701-1.679 4.252-6.018 5.739-9.57 5.839.407-.447.642-1.052 1.085-2.575-.515.605-2.26 1.387-3.872 1.942-1.248 3.102-.858 5.354-1.701 7.135 1.518-1.82 1.936-2.524 2.489-2.974 1.383-1.273 3.042-1.6 3.476-3.051.036 1.512-.149 4.552-.591 6.036 1.853-1.323 5.863-5.723 6.14-7.95-.581 4.385-3.939 7.69-7.078 10.41.163 2.655 1.767 4.816 1.864 5.803.404-.701.393-1.703.675-2.166.464-2.033 1.543-3.362.976-4.874.949 1.174 2.647 3.7 3.197 5.149.506-1.692.913-5.615.553-8.209a6.33 6.33 0 01-.428-1.664 3.3 3.3 0 00-.103-.197c.036.061.067.122.1.183a12.7 12.7 0 01-.083-1.911c.296 2.22 2.246 4.524 4.093 5.861 1.278-1.683 1.602-3.936 1.68-5.467-1.179-.724-2.432-2-2.642-3.51-.221-1.636.42-2.523 1.753-3.86-2.317 2.92-.862 5.01.277 5.9.534.413 1.303 1.065 2.213 1.298 1.51-.899 3.476.666 3.955 1.736a1.2 1.2 0 01.298.713c1.997 0 3.073-1.093 3.35-1.941.08-.256 0-.392.09-.613-.066-.175-.237.235-.591-.13-.022-.092-.03-.262-.13-.262s-.426.342-.65.333c-.54 0-.83-.962-1.034-1.018-.205-.055-.573.502-.703.147-.02-.499-.069-.674.091-.868 1.223-1.467 1.936-1.04 2.797-.466.171.114-.067 1.007.09 1.11.158.102.634-.278.778-.186.196.119.036.424.166.444a4.544 4.544 0 002.052-2.12 3.728 3.728 0 01-.636-.058 1.162 1.162 0 01-.05.277c-.392-1.63-1.587-3.05-3.595-2.496.478-.32 1.57-.763 2.57-.111.743.48.97 1.276 1.07 2.047.352.042.71-.008 1.037-.147.22-.141.484-.305.442-.416-.138-.422-.924-.968-1.18-1.226-.18-.893-1.66-1.523-2.753-2.064 1.04-1.83-2.547-1.47-3.319-3.35-.528-1.302.114-2.192 2.088-2.561-1.106-.347-2.071-.669-3.042-.278.368.933.93 2.344-.653 3.016 1.015-.81.62-1.842 0-2.647h-.019A5.681 5.681 0 0038.958.474c-.59.078-2.945.072-4.425-.507.02.036.044.077.069.116.08.103.16.208.235.314.28.328.61.609.98.832 1.338.815 3 1.02 3.747 2.144a.37.37 0 01.077.117c-.022-.042-.055-.08-.077-.117-.529-.535-3.173-1.076-4.926-1.69-2.138.872-4.4 1.962-7.324 2.497.636.204 1.282.37 1.936.5 1.793.233 3.25 1.076 6.204.735-2.37 1.265-5.056.538-7.191.15-2.202 1.925-4.18 5.078-5.745 6.313 2.24-.508 7.213-2.203 8.574-3.65-.788 1.29-1.825 2.97-2.663 4.307"/><path d="M42.64 27.695c-.75-1.257-3.32-4.855-3.873-6.488-.329.649-.583 1.198-.553 1.42-1.505-1.301-2.605-2.178-3.34-3.196a16.49 16.49 0 01.276 5.082c1.562 1.592 5.63 2.45 7.467 3.182"/><path d="M42.64 27.695c-.75-1.257-3.32-4.855-3.873-6.488-.329.649-.583 1.198-.553 1.42-1.505-1.301-2.605-2.178-3.34-3.196a16.49 16.49 0 01.276 5.082c1.562 1.592 5.63 2.45 7.467 3.182"/><path d="M49.43 36.41c-2.072.556-4.208 1.024-5.079-.726 3.106 1.437 5.573-.868 8.383.1-.8-.042-1.817.227-2.873.507 2.09 1.523 5.49.957 7.672 2.669-2.664-1.27-7.642-1.096-8.104-2.55zm17.454 10.775a4.406 4.406 0 00-.324-1.213c-.675.122-1.612.128-2.13-.086-.553-.46-.746-1.11-1.438-1.889.742.392 1.123 1.096 1.66 1.562.495.07 1.634.225 2.281-.48a2.65 2.65 0 00.44-1.387c.34-.369 1.599-1.503 0-2.89.346.74-.083 1.11-.44 1.262a2.556 2.556 0 00-2.837-.522c-.73-.59-.869-.23-1.66-.776 1.245-.111 1.867-.763 1.986-1.248.553-.3.913-.05 1.33.196-.788-1.83-2.021-1.584-2.27-1.55-.606-.383-1.66-.555-3.042-.352-2.517-1.745-2.357-2.464-7.424-3.651a5.49 5.49 0 01-.74-.172c-1.553-.333-1.812-1.295-5.181-1.04 1.629-.666 2.257-.74 3.96-.405-3.68-4.161-7.127-6.907-9.215-7.609.932 1.7 1.936 3.997 2.273 4.477-3.39-1.706-7.282-1.49-9-4.53a41.161 41.161 0 01-.713 4.377c-.276-.532-2.367-3.82-3.197-5.145-.244.424-.498 1.958-.678 3.514 1.17 1.504 2.949 3.637 1.806 5.202a2.55 2.55 0 001.295-1.745c.047.058.083.122.124.18.741.61 1.552 1.024 3.206 1.454.168.097-.595-.833-.695-2.478.791 1.537 2.042 3.362 2.335 3.562 1.59 1.093 3.25 2.45 3.933 3.018-.2 1.043-.117 1.443-.89 2.128.483.277.696.277 1.304.372.252.041 2.1-.294 2.445-.372.222.078-.83.743-.616.832.213.089 1.452-.075 1.579-.225.246.09-.396.638-.147.733a17.55 17.55 0 012.429 1.129c1.012.302 2.403 1.4 5.033 2.002 2.072.52 2.664.52 3.917 1.038.688.277 1.208 1.506 1.452 2.455.298 1.154.329 2.058 1.546 2.219.44.072.876.471 1.515.225a2.167 2.167 0 001.743.296c-.36-.224-.797-.585-.802-.832a.255.255 0 00.09-.052 2.879 2.879 0 01-.751-.575c-.277-.663-.374-1.179-.919-2.163.83.554.996 1.315 1.27 1.98.262.197.54.371.83.522h.033c.553.263 2.37.624 3.042-.278.138.167 1.341.536 1.837-1.292a1.618 1.618 0 01-1.585.219"/><path d="M49.43 36.41c-2.072.556-4.208 1.024-5.079-.726 3.106 1.437 5.573-.868 8.383.1-.8-.042-1.817.227-2.873.507 2.09 1.523 5.49.957 7.672 2.669-2.664-1.27-7.642-1.096-8.104-2.55zm17.454 10.775a4.406 4.406 0 00-.324-1.213c-.675.122-1.612.128-2.13-.086-.553-.46-.746-1.11-1.438-1.889.742.392 1.123 1.096 1.66 1.562.495.07 1.634.225 2.281-.48a2.65 2.65 0 00.44-1.387c.34-.369 1.599-1.503 0-2.89.346.74-.083 1.11-.44 1.262a2.556 2.556 0 00-2.837-.522c-.73-.59-.869-.23-1.66-.776 1.245-.111 1.867-.763 1.986-1.248.553-.3.913-.05 1.33.196-.788-1.83-2.021-1.584-2.27-1.55-.606-.383-1.66-.555-3.042-.352-2.517-1.745-2.357-2.464-7.424-3.651a5.49 5.49 0 01-.74-.172c-1.553-.333-1.812-1.295-5.181-1.04 1.629-.666 2.257-.74 3.96-.405-3.68-4.161-7.127-6.907-9.215-7.609.932 1.7 1.936 3.997 2.273 4.477-3.39-1.706-7.282-1.49-9-4.53a41.161 41.161 0 01-.713 4.377c-.276-.532-2.367-3.82-3.197-5.145-.244.424-.498 1.958-.678 3.514 1.17 1.504 2.949 3.637 1.806 5.202a2.55 2.55 0 001.295-1.745c.047.058.083.122.124.18.741.61 1.552 1.024 3.206 1.454.168.097-.595-.833-.695-2.478.791 1.537 2.042 3.362 2.335 3.562 1.59 1.093 3.25 2.45 3.933 3.018-.2 1.043-.117 1.443-.89 2.128.483.277.696.277 1.304.372.252.041 2.1-.294 2.445-.372.222.078-.83.743-.616.832.213.089 1.452-.075 1.579-.225.246.09-.396.638-.147.733a17.55 17.55 0 012.429 1.129c1.012.302 2.403 1.4 5.033 2.002 2.072.52 2.664.52 3.917 1.038.688.277 1.208 1.506 1.452 2.455.298 1.154.329 2.058 1.546 2.219.44.072.876.471 1.515.225a2.167 2.167 0 001.743.296c-.36-.224-.797-.585-.802-.832a.255.255 0 00.09-.052 2.879 2.879 0 01-.751-.575c-.277-.663-.374-1.179-.919-2.163.83.554.996 1.315 1.27 1.98.262.197.54.371.83.522h.033c.553.263 2.37.624 3.042-.278.138.167 1.341.536 1.837-1.292a1.618 1.618 0 01-1.585.219"/><path d="M45.83 26.41c.814.594 2.374 2.847 3.715 3.884-.534-.946.056-4.247-3.343-6.585 4.03 1.195 4.148 3.123 7.29 3.542a7.757 7.757 0 001.513-.166c-2.1-1.196-3-6.43-6.898-6.627-.758.696-1.477 1.623-2.276 2.027-3.059 1.554-4.425.974-4.978.891.34.443.643.914.904 1.41 1.286-.167 2.213-.234 4.077 1.633"/><path d="M45.83 26.41c.814.594 2.374 2.847 3.715 3.884-.534-.946.056-4.247-3.343-6.585 4.03 1.195 4.148 3.123 7.29 3.542a7.757 7.757 0 001.513-.166c-2.1-1.196-3-6.43-6.898-6.627-.758.696-1.477 1.623-2.276 2.027-3.059 1.554-4.425.974-4.978.891.34.443.643.914.904 1.41 1.286-.167 2.213-.234 4.077 1.633m-3.333 29.226a1.41 1.41 0 00-.368.89c.407 1.077 1.259 2.153 1.184 3.82a11.107 11.107 0 00-1.961-3.82c0-.485.628-1.298.738-1.445.85 0 1.63-1.19 2.072-2.302.293 1.207-1.164 2.524-1.66 2.857h-.005zM28.379 47.39c2.688-1.49 2.307-4.51 4.497-6.034-1.383 1.723-1.745 6.514-4.497 6.034zm-5.21 10.335a1.182 1.182 0 00-.83.297c-.553 1.016-1.405 2.075-2.039 3.606.277-2.052 1.414-2.749 1.66-4.202.36-.33 1.383-.386 1.573-.397.554.644 1.878-.424 2.766-1.833-.221 1.409-2.121 3.17-3.133 2.527l.003.002zm27.026 4.858c-.276 0-.113.371-.965.33-.92-.036-2.992-1.41-3.844-3.41a8.093 8.093 0 011.477-3.117c.752-.946 6.36-2.453 6.068-8.833-.1-2.141-2.213-3.411-4.293-3.855-1.067-.23-1.427-1.54-.658-2.078a13.17 13.17 0 00-2.52-1.007c-.135-.041.13-.26 0-.277a8.198 8.198 0 01-1.66-.086c-.276-.05.41-.433.145-.472-1.367.108-2.843.056-3.549-.297 2.849-3.758-4.179-5.86-6.04-6.832.249 1.18-.127 2.355-.357 3.861-.23 1.507-3.319 4.064-5.216 4.27-2.83.305-6.281-2.741-6.967-5.679-.938-4.005.73-6.635.528-9.051-.202-2.416-2.353-6.047-6.004-6.355.31.2.578.462.785.768-4.325-.25-3.993 1.005-5.99 1.729-.855.3-1.502-.247-1.33-1.05-.944 1.205-.355 1.882.027 2.16.379-.309.89-.203 1.217-.106a2.32 2.32 0 00-.996.255c-1.66 1.162-1.676 4.241-1.073 4.899 0-.037.02-.073.028-.106.047-.75.308-1.47.752-2.075a4.676 4.676 0 00-.091 2.414c.984 1.864 4.176 1.825 5.23 1.062-.802.114-1.211-.058-1.424-.238-.852.144-1.383-.555-1.704-.996a3.57 3.57 0 001.986.74 1.036 1.036 0 00.722-.358c-.775-.11-1.63-1.403-1.281-1.941.406-.63.85-.372 1.184-1.262.702-1.853-1.06-1.734-.506-2.594.876-1.345 3.595-1.151 5.133-.072 1.612 1.16 1.562 3.018 1.305 4.993-.276 2.08-.774 4.297-.616 5.531-.067.2-.457-.41-.678-.746a4.61 4.61 0 00.11 1.559c-.257 0-.594-.425-.591-.408 1.125 7.076 6.762 9.026 8.336 9.698a6.529 6.529 0 011.756-1.387c-.277.338-.83.993-1.402 1.736-.313.616-1.223 1.726-1.436 2.397-.34 1.085 1.873 3.47.445 6.674-1.853 4.172-4.118 3.49-4.67 4.419-.277.46-.41 1.19-1.26 2.219-1.592 3.45-1.529 6.552-1.886 7.642-.082.25-.666.63-.705.857-.18 1.085.374 2.261 1.242 2.316.238.236.055.503-.243 1.018 1.037-.144 1.073-1.037 1.26-1.073.335-.041.645-.197.878-.441.304-.472.409-.96.572-1.803.179.381.246.805.194 1.223a.421.421 0 01.166 0c.962.63.962 2.336 2.292 1.595.349.017.706.408.62 1.06a1.593 1.593 0 00.492-1.692c.303-.297.498-.688.553-1.11a.197.197 0 01.02-.094c-.136-1.329-.683-1.56-1.687-1.665.796-.352 1.866-.185 2.127 1.537.55.108 1.057.374 1.46.766.15-.93-.34-.999-.37-1.298C28.44 65.85 25.002 66.29 24 65.95c-.37-.127-.739-.926-.924-1.598.188-1.664 1.292-3.265 2.724-4.585 5.413.669 8.682-7.928 10.817-10.044a32.901 32.901 0 001.884-3.656c.027.532-.293 1.983-.932 3.148 7.517-1.706 5.808 4.555 3.47 5.31-.71.224-.857 1.278-.43 2.443a2.88 2.88 0 00.887 1.387c.808 1.665 1.723 3.909 2.589 6.086.296.738 2.489.846 3.565 2.36.368.52 2.96 1.188 3.872.234.334-.344 1.22-.036 1.22.968.777-.671.276-1.42.035-1.859h.034a3.628 3.628 0 00-1.03-1.914c-.688-.216-2.04.175-2.651 0 .981-.094 2.112-.602 2.798-.383.526.364 1.107 1.343 1.314 2.003.044-.052.091-.11.166-.186.169-.166.664 0 1.037.591.33-.815-.777-1.683-.852-1.814-.387-.702-.852-1.82-3.401-1.856"/><path d="M42.501 55.645a1.41 1.41 0 00-.368.89c.407 1.077 1.259 2.153 1.184 3.82a11.107 11.107 0 00-1.961-3.82c0-.485.628-1.298.738-1.445.85 0 1.63-1.19 2.072-2.302.293 1.207-1.164 2.524-1.66 2.857h-.005zM28.379 47.39c2.688-1.49 2.307-4.51 4.497-6.034-1.383 1.723-1.745 6.514-4.497 6.034zm-5.21 10.335a1.182 1.182 0 00-.83.297c-.553 1.016-1.405 2.075-2.039 3.606.277-2.052 1.414-2.749 1.66-4.202.36-.33 1.383-.386 1.573-.397.554.644 1.878-.424 2.766-1.833-.221 1.409-2.121 3.17-3.133 2.527l.003.002zm27.026 4.858c-.276 0-.113.371-.965.33-.92-.036-2.992-1.41-3.844-3.41a8.093 8.093 0 011.477-3.117c.752-.946 6.36-2.453 6.068-8.833-.1-2.141-2.213-3.411-4.293-3.855-1.067-.23-1.427-1.54-.658-2.078a13.17 13.17 0 00-2.52-1.007c-.135-.041.13-.26 0-.277a8.198 8.198 0 01-1.66-.086c-.276-.05.41-.433.145-.472-1.367.108-2.843.056-3.549-.297 2.849-3.758-4.179-5.86-6.04-6.832.249 1.18-.127 2.355-.357 3.861-.23 1.507-3.319 4.064-5.216 4.27-2.83.305-6.281-2.741-6.967-5.679-.938-4.005.73-6.635.528-9.051-.202-2.416-2.353-6.047-6.004-6.355.31.2.578.462.785.768-4.325-.25-3.993 1.005-5.99 1.729-.855.3-1.502-.247-1.33-1.05-.944 1.205-.355 1.882.027 2.16.379-.309.89-.203 1.217-.106a2.32 2.32 0 00-.996.255c-1.66 1.162-1.676 4.241-1.073 4.899 0-.037.02-.073.028-.106.047-.75.308-1.47.752-2.075a4.676 4.676 0 00-.091 2.414c.984 1.864 4.176 1.825 5.23 1.062-.802.114-1.211-.058-1.424-.238-.852.144-1.383-.555-1.704-.996a3.57 3.57 0 001.986.74 1.036 1.036 0 00.722-.358c-.775-.11-1.63-1.403-1.281-1.941.406-.63.85-.372 1.184-1.262.702-1.853-1.06-1.734-.506-2.594.876-1.345 3.595-1.151 5.133-.072 1.612 1.16 1.562 3.018 1.305 4.993-.276 2.08-.774 4.297-.616 5.531-.067.2-.457-.41-.678-.746a4.61 4.61 0 00.11 1.559c-.257 0-.594-.425-.591-.408 1.125 7.076 6.762 9.026 8.336 9.698a6.529 6.529 0 011.756-1.387c-.277.338-.83.993-1.402 1.736-.313.616-1.223 1.726-1.436 2.397-.34 1.085 1.873 3.47.445 6.674-1.853 4.172-4.118 3.49-4.67 4.419-.277.46-.41 1.19-1.26 2.219-1.592 3.45-1.529 6.552-1.886 7.642-.082.25-.666.63-.705.857-.18 1.085.374 2.261 1.242 2.316.238.236.055.503-.243 1.018 1.037-.144 1.073-1.037 1.26-1.073.335-.041.645-.197.878-.441.304-.472.409-.96.572-1.803.179.381.246.805.194 1.223a.421.421 0 01.166 0c.962.63.962 2.336 2.292 1.595.349.017.706.408.62 1.06a1.593 1.593 0 00.492-1.692c.303-.297.498-.688.553-1.11a.197.197 0 01.02-.094c-.136-1.329-.683-1.56-1.687-1.665.796-.352 1.866-.185 2.127 1.537.55.108 1.057.374 1.46.766.15-.93-.34-.999-.37-1.298C28.44 65.85 25.002 66.29 24 65.95c-.37-.127-.739-.926-.924-1.598.188-1.664 1.292-3.265 2.724-4.585 5.413.669 8.682-7.928 10.817-10.044a32.901 32.901 0 001.884-3.656c.027.532-.293 1.983-.932 3.148 7.517-1.706 5.808 4.555 3.47 5.31-.71.224-.857 1.278-.43 2.443a2.88 2.88 0 00.887 1.387c.808 1.665 1.723 3.909 2.589 6.086.296.738 2.489.846 3.565 2.36.368.52 2.96 1.188 3.872.234.334-.344 1.22-.036 1.22.968.777-.671.276-1.42.035-1.859h.034a3.628 3.628 0 00-1.03-1.914c-.688-.216-2.04.175-2.651 0 .981-.094 2.112-.602 2.798-.383.526.364 1.107 1.343 1.314 2.003.044-.052.091-.11.166-.186.169-.166.664 0 1.037.591.33-.815-.777-1.683-.852-1.814-.387-.702-.852-1.82-3.401-1.856m33.684-47.758c.164 0 .164-.103.13-.236L80.84 5.548c-.17-.503-.337-.503-.5 0l-2.938 9.043c-.066.17 0 .236.102.236h6.372zM80.406 1.44c.4-1.11.533-1.307.732-1.307.2 0 .335.17.733 1.207.504 1.273 5.74 15.093 7.786 20.18 1.2 2.977 2.171 3.512 2.87 3.715.432.137.882.204 1.334.2.202 0 .334.033.334.199s-.3.277-.666.277c-.5 0-2.937 0-5.238-.064-.634-.033-1.001-.033-1.001-.235 0-.133.099-.197.232-.233.202-.07.4-.37.202-.902l-3.115-8.247a.294.294 0 00-.301-.2h-7.172a.348.348 0 00-.334.278l-2.003 5.922a7.028 7.028 0 00-.464 2.244c0 .666.7.968 1.266.968h.332c.235 0 .335.067.335.2 0 .203-.2.278-.498.278-.802 0-2.237-.097-2.605-.097-.368 0-2.213.097-3.77.097-.434 0-.633-.064-.633-.278 0-.133.132-.2.301-.2a9.3 9.3 0 00.965-.066c1.535-.2 2.213-1.47 2.805-3.146l7.573-20.79zm39.865 20.782c.099 1.004.301 2.544 1.502 2.943a6.137 6.137 0 001.9.277c.135 0 .235.07.235.2s-.277.278-.6.278c-.67 0-3.939-.067-5.006-.167-.7-.07-.83-.17-.83-.302a.251.251 0 01.199-.236c.169-.033.199-.469.136-1.001l-1.405-14.408h-.067l-7.072 14.524c-.603 1.237-.769 1.506-1.037 1.506-.268 0-.431-.277-1.001-1.303-.766-1.407-2.702-5.057-3.435-6.594-.869-1.809-3.236-6.596-3.737-7.767h-.133l-1.136 12.852c-.036.432-.036.968-.036 1.44a.8.8 0 00.702.8c.37.103.751.159 1.134.167.1 0 .235.1.235.2 0 .203-.202.277-.536.277-1.106 0-2.49-.1-2.733-.1-.243 0-1.66.1-2.472.1-.3 0-.498-.066-.498-.277 0-.1.133-.2.299-.2.291-.01.581-.042.868-.097.968-.172 1.001-1.21 1.134-2.28l2.135-18.571c.033-.3.166-.502.332-.502a.67.67 0 01.603.432l8.875 17.673 8.544-17.634c.132-.277.276-.469.467-.469s.365.233.431.772l2.003 17.467zm8.173-9.606c0-4.416 0-5.218-.07-6.122-.063-.971-.232-1.44-1.2-1.573a9.427 9.427 0 00-1.009-.067.277.277 0 01-.233-.233c0-.169.133-.235.468-.235 1.333 0 3.236.066 3.402.066.165 0 6.339.034 7.008 0 .553-.036 1.106-.133 1.333-.166.127-.06.261-.105.398-.133.103 0 .136.133.136.263 0 .205-.166.538-.235 1.34-.031.277-.1 1.54-.163 1.875-.036.133-.136.3-.277.3-.141 0-.235-.133-.235-.364a3.14 3.14 0 00-.166-1.007c-.199-.468-.501-.668-2.102-.87-.501-.067-3.903-.1-4.237-.1-.133 0-.166.1-.166.302v7.73c0 .2 0 .3.166.3.368 0 4.237 0 4.904-.066.666-.067 1.136-.103 1.435-.402.202-.2.335-.37.434-.37.1 0 .169.07.169.236a15.75 15.75 0 00-.238 1.573 29.19 29.19 0 00-.13 1.842c0 .203-.069.533-.277.533-.132 0-.201-.1-.201-.278a2.573 2.573 0 00-.133-.937c-.1-.4-.368-.735-1.499-.871-.802-.1-3.939-.133-4.439-.133a.174.174 0 00-.199.202v2.375c0 .97-.034 4.285 0 4.854.066 1.906.6 2.275 3.501 2.275.769 0 2.168 0 2.937-.3.769-.3 1.167-.832 1.333-1.975.07-.336.136-.438.302-.438.166 0 .199.235.199.438a23.79 23.79 0 01-.373 2.763c-.202.735-.504.735-1.635.735-2.213 0-3.905-.07-5.103-.1-1.197-.03-2.005-.067-2.439-.067-.067 0-.634 0-1.267.031-.567.036-1.233.067-1.704.067-.298 0-.464-.067-.464-.23a.22.22 0 01.142-.22.221.221 0 01.09-.017c.303-.026.604-.071.902-.135.567-.098.633-.666.766-1.507.169-1.168.169-3.412.169-6.155v-5.03zm20.248 2.41a.419.419 0 00.202.369c.431.233 1.936.436 3.233.436.702 0 1.504-.03 2.212-.502 1.001-.671 1.768-2.175 1.768-4.35 0-3.55-1.936-5.59-5.07-5.59a12.83 12.83 0 00-2.102.167.367.367 0 00-.235.336l-.008 9.134zm-2.537-2.41c0-4.416 0-5.218-.063-6.122-.067-.971-.235-1.44-1.203-1.573a9.497 9.497 0 00-1.001-.067.277.277 0 01-.233-.233c0-.169.133-.235.465-.235 1.336 0 3.305.066 3.471.066.301 0 2.766-.066 3.67-.066 1.87 0 3.938.169 5.471 1.237.735.535 2.035 1.908 2.035 3.883 0 2.108-.865 4.161-3.595 6.489 2.403 3.015 4.425 5.592 6.14 7.364 1.568 1.606 2.536 1.875 3.269 1.978a5.57 5.57 0 001.034.097.263.263 0 01.277.236c0 .164-.169.23-.703.23h-1.833c-1.66 0-2.404-.163-3.137-.555-1.266-.674-2.334-2.044-4.002-4.188-1.236-1.537-2.536-3.379-3.172-4.147a.44.44 0 00-.398-.166l-3.737-.07c-.133 0-.202.07-.202.236v.66c0 2.746 0 4.954.133 6.122.102.832.277 1.387 1.17 1.506.43.073.864.119 1.3.136a.206.206 0 01.175.06.2.2 0 01.05.081c.011.03.014.063.01.095 0 .133-.133.23-.468.23-1.601 0-3.471-.097-3.595-.097-.033 0-2.002.097-2.904.097-.299 0-.467-.066-.467-.23a.222.222 0 01.067-.168.228.228 0 01.168-.068 4.08 4.08 0 00.901-.136c.553-.13.634-.665.766-1.506.166-1.168.166-3.412.166-6.155l-.025-5.021z"/><path d="M170.577 17.637c0 2.743 0 4.993.133 6.158.102.832.199 1.387 1.067 1.503.441.072.887.117 1.333.136a.228.228 0 01.219.142c.012.03.017.06.016.091 0 .136-.132.233-.467.233-1.635 0-3.538-.097-3.67-.097-.133 0-2.003.097-2.904.097-.296 0-.462-.066-.462-.233a.23.23 0 01.064-.166.221.221 0 01.165-.067c.305-.011.607-.057.902-.136.57-.13.667-.665.766-1.503.133-1.17.169-3.415.169-6.158v-5.021c0-4.416 0-5.218-.067-6.122-.066-.971-.298-1.407-.934-1.54a5.271 5.271 0 00-.899-.1.25.25 0 01-.235-.235c0-.167.132-.233.467-.233.965 0 2.802.066 2.968.066.166 0 2.035-.066 2.937-.066.335 0 .467.066.467.233a.274.274 0 01-.235.236 3.271 3.271 0 00-.733.066c-.802.166-.968.569-1.034 1.573-.033.904-.033 1.706-.033 6.122v5.02zm9.409 5.589c-2.871-2.477-3.571-5.725-3.571-8.433a11.246 11.246 0 013.303-7.767c1.767-1.706 4.425-3.05 8.938-3.05 1.43.004 2.858.116 4.271.335.989.217 1.993.362 3.003.435.299 0 .368.133.368.3 0 .233-.069.568-.133 1.606-.033.937-.033 2.51-.066 2.91-.033.4-.169.604-.335.604s-.235-.202-.235-.604c0-1.11-.467-2.239-1.233-2.844-1.035-.87-3.17-1.57-5.772-1.57-3.767 0-5.571 1.002-6.608 1.973-2.168 2.008-2.635 4.552-2.635 7.431 0 5.45 4.306 10.305 10.578 10.305 2.213 0 3.671-.169 4.835-1.34.636-.635 1.037-1.839 1.137-2.374.066-.303.099-.402.301-.402.133 0 .277.202.277.402a30.084 30.084 0 01-.7 3.645c-.169.555-.232.638-.736.832-1.2.469-3.402.638-5.302.638-4.405 0-7.373-1.037-9.68-3.051m30.451-6.405c.133 0 .133-.067.099-.203l-2.901-7.797c-.169-.433-.336-.433-.5 0l-2.736 7.797c-.036.136 0 .203.097.203h5.941zm-3.269-11.848c.368-.935.5-1.11.7-1.11.298 0 .398.403.699 1.038.534 1.204 5.239 12.952 7.039 17.268 1.068 2.544 1.87 2.913 2.503 3.11.378.114.772.171 1.167.169.169 0 .368.069.368.233 0 .163-.335.235-.667.235-.431 0-2.602 0-4.635-.066-.57-.033-1.037-.033-1.037-.203 0-.169.069-.13.202-.2a.533.533 0 00.276-.768l-2.635-6.527c-.067-.133-.1-.169-.277-.169H204.1a.305.305 0 00-.296.239l-1.659 4.549a5.832 5.832 0 00-.434 1.908c0 .555.503.769 1.001.769h.276c.233 0 .299.1.299.233s-.166.235-.434.235c-.7 0-2.301-.1-2.636-.1-.335 0-1.767.1-2.968.1-.37 0-.567-.066-.567-.235a.26.26 0 01.277-.233c.291-.006.58-.028.868-.067 1.336-.17 1.901-1.17 2.467-2.61l6.879-17.798zm16.912 17.066c.067 2.343.335 3.05 1.134 3.247.483.108.975.164 1.469.167a.228.228 0 01.232.236c0 .163-.199.23-.531.23-1.659 0-2.837-.097-3.106-.097-.268 0-1.499.097-2.835.097-.301 0-.464-.033-.464-.23a.217.217 0 01.014-.091.234.234 0 01.049-.077.228.228 0 01.166-.068 4.634 4.634 0 001.203-.167c.733-.202.83-.97.83-3.547V5.423c0-1.137.169-1.44.401-1.44.335 0 .83.572 1.137.871.465.469 4.735 5.018 9.271 9.709 2.904 3.012 6.04 6.394 6.942 7.329l-.299-14.261c-.033-1.84-.199-2.477-1.106-2.644a9.463 9.463 0 00-1.438-.133c-.199 0-.23-.169-.23-.277 0-.17.23-.2.553-.2 1.336 0 2.736.067 3.07.067.335 0 1.3-.067 2.489-.067.305 0 .537.03.537.2a.336.336 0 01-.335.277 3.346 3.346 0 00-.702.067c-.965.2-1.029.768-1.029 2.477l-.069 16.663c0 1.875-.036 2.041-.235 2.041-.299 0-.6-.235-2.235-1.739a317.027 317.027 0 01-7.639-7.697c-3.385-3.582-6.677-7.06-7.575-8.067l.331 13.42zM96.295 51.392c-.277-.133-.277-.2-.277-.71 0-.94.089-1.697.11-2.008 0-.203.045-.313.156-.313.11 0 .177.066.177.224-.006.232.016.464.066.69.313 1.388 1.778 1.873 3.092 1.873 1.936 0 2.935-1.093 2.935-2.521 0-1.362-.733-2.006-2.47-3.301l-.888-.666c-2.113-1.587-2.802-2.746-2.802-4.061 0-2.22 1.756-3.567 4.337-3.567a9.507 9.507 0 012.024.222c.224.059.455.088.686.086.158 0 .202.025.202.133 0 .108-.088.718-.088 2.01 0 .278-.022.425-.155.425s-.158-.088-.18-.247a3.569 3.569 0 00-.277-.937c-.132-.222-.779-.938-2.536-.938-1.421 0-2.6.716-2.6 2.053 0 1.204.6 1.897 2.534 3.215l.553.377c2.381 1.629 3.203 2.946 3.203 4.574 0 1.11-.423 2.32-1.823 3.235-.83.535-2.046.666-3.114.666-.913 0-2.047-.13-2.846-.514m17.128-5.239c0 1.83 0 3.328.089 4.102.066.555.155.916.755 1.007.294.046.59.076.888.089a.139.139 0 01.15.09c.007.02.01.041.007.063 0 .094-.088.16-.312.16-1.068 0-2.312-.066-2.423-.066-.111 0-1.447.066-2.022.066-.224 0-.312-.047-.312-.16 0-.064.044-.13.155-.13a2.7 2.7 0 00.578-.092c.398-.09.511-.47.578-1.027.088-.78.088-2.272.088-4.102v-7.961l-2.824.041c-1.222.022-1.69.158-1.98.605-.126.188-.23.39-.31.602-.044.152-.11.177-.202.177a.15.15 0 01-.096-.051.15.15 0 01-.034-.104c0-.203.399-1.897.421-2.053.022-.155.133-.36.199-.36.284.096.574.172.868.227a17.17 17.17 0 001.535.089h7.382c.469.004.938-.026 1.402-.089.277-.047.468-.091.553-.091.086 0 .089.11.089.224 0 .583-.066 1.942-.066 2.164 0 .152-.089.247-.18.247s-.133-.07-.155-.336l-.022-.202c-.067-.583-.49-1.004-2.357-1.049l-2.445-.041.003 7.96zm13.085-.558c.089 0 .089-.044.066-.136l-1.936-5.196c-.11-.277-.221-.277-.334 0L122.5 45.46c-.019.092 0 .136.066.136h3.961zm-2.177-7.897c.244-.622.332-.738.465-.738.199 0 .277.277.467.69.357.805 3.494 8.639 4.702 11.512.711 1.695 1.245 1.942 1.66 2.078.252.073.514.11.777.11.11 0 .246.045.246.153 0 .109-.224.161-.445.161-.277 0-1.734 0-3.092-.047-.379-.022-.689-.022-.689-.13 0-.108.044-.092.135-.136a.353.353 0 00.205-.217.37.37 0 00-.03-.296l-1.757-4.353c-.044-.088-.069-.108-.179-.108h-4.522a.207.207 0 00-.128.041.21.21 0 00-.074.112l-1.107 3.035a3.946 3.946 0 00-.276 1.273c0 .38.335.513.666.513h.18c.155 0 .199.064.199.152 0 .09-.11.161-.276.161-.468 0-1.535-.069-1.756-.069-.222 0-1.181.07-1.981.07-.243 0-.379-.048-.379-.162a.175.175 0 01.06-.112.17.17 0 01.12-.04 5.5 5.5 0 00.578-.047c.891-.111 1.27-.78 1.66-1.74l4.571-11.866zm13.298 8.455c0 1.83 0 3.328.089 4.102.069.555.157.916.757 1.007a8.09 8.09 0 00.95.094c.02.006.039.018.054.032a.138.138 0 01.039.116c0 .094-.086.16-.31.16-1.067 0-2.315-.066-2.422-.066-.108 0-1.447.066-2.025.066-.224 0-.313-.047-.313-.16 0-.064.045-.13.158-.13.196-.01.389-.04.578-.092.401-.09.512-.47.578-1.027.086-.78.086-2.272.086-4.102v-7.961l-2.821.041c-1.223.022-1.693.158-1.98.605-.127.187-.231.39-.31.602-.044.152-.114.177-.202.177a.148.148 0 01-.133-.155c0-.203.401-1.897.421-2.053.019-.155.135-.36.201-.36.283.096.573.172.866.227.553.064 1.314.089 1.535.089h7.379c.469.004.938-.026 1.402-.089.291-.047.468-.091.554-.091.085 0 .088.11.088.224 0 .583-.069 1.942-.069 2.164 0 .152-.089.247-.174.247-.086 0-.136-.07-.158-.336l-.022-.202c-.066-.583-.487-1.004-2.359-1.049l-2.445-.041.008 7.96zm8.853-3.346c0-2.946 0-3.48-.047-4.083-.047-.602-.152-.96-.796-1.048a5.725 5.725 0 00-.67-.045.189.189 0 01-.155-.158c0-.108.089-.155.31-.155.891 0 2.157.047 2.271.047.113 0 4.226.02 4.668 0 .377-.025.733-.089.891-.111a1.11 1.11 0 01.277-.092c.066 0 .088.092.088.178 0 .133-.111.358-.155.893-.022.183-.066 1.027-.11 1.251-.023.089-.089.2-.18.2s-.155-.092-.155-.244a2.17 2.17 0 00-.111-.669c-.132-.316-.334-.446-1.402-.582-.335-.045-2.6-.064-2.824-.064-.088 0-.108.064-.108.2v5.15c0 .137 0 .2.108.2.246 0 2.824 0 3.269-.044.446-.044.758-.066.957-.277.133-.136.222-.247.291-.247.069 0 .108.047.108.158s-.108.422-.155 1.049a17.975 17.975 0 00-.089 1.226c0 .133-.044.358-.177.358-.091 0-.135-.07-.135-.18a1.761 1.761 0 00-.086-.625c-.069-.277-.246-.49-1.001-.583-.534-.063-2.625-.085-2.96-.085-.11 0-.13.066-.13.13v1.587c0 .646-.027 2.854 0 3.234.042 1.273.399 1.517 2.335 1.517.509 0 1.443 0 1.955-.202.512-.203.777-.555.888-1.315.047-.222.091-.277.202-.277.11 0 .132.158.132.277-.058.615-.15 1.226-.276 1.83-.133.492-.335.492-1.09.492-1.468 0-2.602-.045-3.404-.07a69.059 69.059 0 00-1.621-.041c-.047 0-.423 0-.846.02-.377.021-.83.046-1.134.046-.202 0-.313-.047-.313-.16 0-.021.004-.042.011-.06a.151.151 0 01.147-.093c.201-.02.402-.05.6-.092.376-.066.423-.446.512-1.001.11-.782.11-2.275.11-4.105v-3.335zm20.284 2.499c0 1.47 0 3.745.019 4.034.067.918.067 1.14.667 1.428a4.705 4.705 0 001.715.278c1.291 0 2.865-.494 2.865-2.924a4.143 4.143 0 00-1.864-3.462c-.669-.427-1.292-.402-1.759-.49-.246-.048-1.223-.048-1.532-.048-.07 0-.111.047-.111.136v1.048zm0-2.1c0 .134.041.184.13.2.396.071.798.1 1.2.09 1.09 0 1.513-.043 1.914-.49a2.912 2.912 0 00.758-2.027c0-1.453-.802-3.051-2.766-3.051a5.8 5.8 0 00-1.004.091c-.177.045-.24.09-.24.203l.008 4.985zm-1.693-.399c0-2.946 0-3.481-.044-4.083-.044-.602-.158-1.004-.799-1.093a7.225 7.225 0 00-.667-.044c-.072 0-.157-.045-.157-.114 0-.07.085-.155.309-.155.891 0 2.158.047 2.271.047.467 0 1.383-.047 2.29-.047 3.269 0 4.113 1.897 4.113 2.904 0 1.492-.977 2.427-1.978 3.329 1.491.449 3.446 1.808 3.446 3.944s-1.579 4.222-4.914 4.222c-.357 0-1.068-.025-1.687-.07-.62-.044-1.181-.041-1.27-.041-.044 0-.401.02-.802.02s-.866.047-1.178.047c-.199 0-.313-.047-.313-.161 0-.064.047-.111.158-.111.201-.02.402-.049.6-.089.376-.064.42-.491.514-1.046.107-1.365.143-2.736.108-4.105v-3.354zm18.26 2.788c.088 0 .088-.044.066-.136l-1.936-5.196c-.111-.277-.224-.277-.329 0l-1.825 5.196c-.025.092 0 .136.066.136h3.958zm-2.18-7.897c.247-.622.332-.738.468-.738.199 0 .276.277.467.69.354.805 3.493 8.639 4.702 11.512.711 1.695 1.245 1.942 1.659 2.078.254.073.517.11.78.11.111 0 .244.045.244.153 0 .109-.224.161-.446.161-.276 0-1.734 0-3.089-.047-.379-.022-.689-.022-.689-.13 0-.108.045-.092.133-.136a.362.362 0 00.206-.216.356.356 0 00-.029-.297l-1.759-4.353c-.039-.088-.066-.108-.177-.108h-4.516a.2.2 0 00-.199.153l-1.107 3.035a3.892 3.892 0 00-.276 1.273c0 .38.334.513.669.513h.177c.158 0 .199.064.199.152 0 .09-.111.161-.29.161-.465 0-1.533-.069-1.757-.069-.224 0-1.178.07-1.977.07-.246 0-.379-.048-.379-.162a.17.17 0 01.18-.152c.192-.006.384-.021.575-.047.891-.111 1.27-.78 1.66-1.74l4.571-11.866zm11.276 11.375c.044 1.562.221 2.03.758 2.167.321.07.648.107.976.11a.142.142 0 01.112.042.151.151 0 01.035.051c.007.02.011.04.011.06 0 .117-.136.161-.357.161-1.106 0-1.889-.07-2.069-.07-.179 0-1.001.07-1.889.07-.202 0-.312-.025-.312-.16a.153.153 0 01.01-.06.15.15 0 01.085-.084.144.144 0 01.06-.01c.27-.002.538-.04.799-.11.492-.136.553-.647.553-2.366V38.003c0-.758.111-.96.277-.96.224 0 .553.38.755.582.312.311 3.161 3.343 6.184 6.466 1.936 2.009 4.024 4.261 4.624 4.885l-.199-9.503c-.022-1.226-.133-1.648-.733-1.759a5.636 5.636 0 00-.957-.089c-.132 0-.155-.113-.155-.183 0-.069.155-.133.377-.133.89 0 1.825.047 2.046.047.221 0 .869-.047 1.66-.047.202 0 .356.022.356.133a.221.221 0 01-.224.183 2.329 2.329 0 00-.464.042c-.647.136-.692.516-.692 1.664l-.044 11.096c0 1.248-.022 1.36-.155 1.36-.202 0-.401-.156-1.491-1.16-.201-.178-3.023-2.966-5.091-5.132-2.268-2.386-4.47-4.716-5.07-5.373l.224 8.951zm16.813-6.266c0-2.946 0-3.481-.044-4.083-.044-.602-.158-.96-.799-1.049a5.696 5.696 0 00-.67-.044.189.189 0 01-.155-.158c0-.108.089-.155.313-.155.888 0 2.088.047 2.212.047.177 0 1.356-.047 1.936-.047.225 0 .313.047.313.155a.167.167 0 01-.048.11.168.168 0 01-.11.048 2.248 2.248 0 00-.486.044c-.515.111-.648.38-.692 1.049-.044.602-.044 1.137-.044 4.083v1.137h.086c.312-.357 3.803-3.814 4.535-4.574.554-.554 1.071-1.045 1.071-1.359 0-.247-.089-.36-.246-.38a.204.204 0 01-.177-.18c0-.086.091-.133.221-.133.398 0 1.001.047 1.469.047.11 0 1.402-.047 1.891-.047.197 0 .277.047.277.133 0 .086-.044.16-.202.16a3.207 3.207 0 00-1.087.264c-.802.358-1.181.785-2.049 1.609-.487.447-3.82 3.656-4.246 4.128.512.554 4.583 4.638 5.382 5.373 1.646 1.47 1.87 1.717 2.805 2.094a4.14 4.14 0 001.197.277c.136 0 .247.064.247.153s-.089.16-.424.16h-1.001c-.453.01-.906-.005-1.358-.046-1.02-.09-1.535-.514-2.378-1.163-.888-.688-5.001-5.037-5.938-6.155h-.089v1.853c0 1.83 0 3.329.089 4.105.069.555.157.913.757 1.002.25.047.502.078.755.091a.149.149 0 01.158.153c0 .094-.091.16-.315.16-.954 0-2.133-.066-2.287-.066-.155 0-1.336.067-1.936.067-.2 0-.31-.047-.31-.161a.136.136 0 01.011-.06.146.146 0 01.144-.093c.202-.009.404-.04.6-.091.376-.089.42-.447.511-1.002.111-.782.111-2.274.111-4.105v-3.35z"/></g><defs><clipPath id="clip0_1971_5961"><path fill="#fff" transform="translate(8.62)" d="M0 0h234.983v72H0z"/></clipPath></defs></svg>